<svg xmlns="http://www.w3.org/2000/svg" width="466.821" height="438.987" viewBox="0 0 466.821 438.987">
  <g id="Group_419" data-name="Group 419" transform="translate(-769.18 -263.125)">
    <g id="Group_373" data-name="Group 373" transform="translate(-16 -21.875)">
      <path id="Path_329" data-name="Path 329" d="M12.8,0H406.569a12.848,12.848,0,0,1,12.8,12.892V248.109A12.848,12.848,0,0,1,406.569,261H12.8A12.848,12.848,0,0,1,0,248.109V12.892A12.848,12.848,0,0,1,12.8,0Z" transform="translate(832.628 285)" fill="#535353"/>
      <rect id="Rectangle_163" data-name="Rectangle 163" width="418.861" height="260.26" rx="12.5" transform="translate(829.447 286.076)" fill="#fff"/>
      <path id="Rectangle_164" data-name="Rectangle 164" d="M12.5,0H406.361a12.5,12.5,0,0,1,12.5,12.5V33.174a0,0,0,0,1,0,0H0a0,0,0,0,1,0,0V12.5A12.5,12.5,0,0,1,12.5,0Z" transform="translate(829.447 285)" fill="#f0f0f1"/>
      <circle id="Ellipse_68" data-name="Ellipse 68" cx="3.95" cy="3.95" r="3.95" transform="translate(846.001 299.758)" fill="#cad8eb"/>
      <circle id="Ellipse_69" data-name="Ellipse 69" cx="3.95" cy="3.95" r="3.95" transform="translate(858.016 299.758)" fill="#cad8eb"/>
      <circle id="Ellipse_70" data-name="Ellipse 70" cx="3.95" cy="3.95" r="3.95" transform="translate(868.974 299.758)" fill="#cad8eb"/>
      <rect id="Rectangle_165" data-name="Rectangle 165" width="355.172" height="26.367" rx="5.525" transform="translate(853.901 397.16)" fill="#d7e3e9"/>
      <rect id="Rectangle_166" data-name="Rectangle 166" width="355.172" height="26.367" rx="5.525" transform="translate(853.901 435.829)" fill="#d7e3e9"/>
      <rect id="Rectangle_167" data-name="Rectangle 167" width="150.65" height="27.148" rx="5.525" transform="translate(956.161 479.789)" fill="#d7e3e9"/>
      <rect id="Rectangle_168" data-name="Rectangle 168" width="45.86" height="56.555" transform="translate(1015.947 330.031)" fill="#fff"/>
      <g id="Group_369" data-name="Group 369" transform="translate(1022.814 337.8)">
        <path id="Path_328" data-name="Path 328" d="M434.82,269.882H402.7c0-7.062,7.193-12.788,16.063-12.788S434.82,262.821,434.82,269.882Z" transform="translate(-402.695 -239.837)" fill="#ffd76b"/>
        <circle id="Ellipse_71" data-name="Ellipse 71" cx="7.834" cy="7.834" r="7.834" transform="translate(8.229)" fill="#ffd76b"/>
      </g>
      <rect id="Rectangle_169" data-name="Rectangle 169" width="32.126" height="5.968" transform="translate(1022.814 373.154)" fill="#ffd76b"/>
    </g>
    <g id="Group_374" data-name="Group 374" transform="translate(605.578 110.611)">
      <path id="Path_234" data-name="Path 234" d="M434.554,435.836c-.32-3.543,13.294-36.434,17.932-38.758a1.29,1.29,0,0,1,.157-.069c-.144.6-.41,21.51-2.166,25.887-3.212,8.011-4.88,9.82-7.089,14.167.19,1.678,1.171,4.754,1.236,5.371.006.063-1.046-4.059.036.186,1.645,4.675,5.038,17.951,4.857,17.932l-4.08,7.871S433.724,441.274,434.554,435.836Z" transform="translate(0.299 2.914)" fill="#e9561d"/>
      <g id="Group_307" data-name="Group 307" transform="translate(430.422 465.68)">
        <g id="Group_265" data-name="Group 265" transform="translate(0 3.223)">
          <g id="Group_232" data-name="Group 232" transform="translate(14.777)">
            <path id="Path_235" data-name="Path 235" d="M444.192,517.63l4.286,51.769h7.552c1.748-20.175,4.567-37.851,1.389-51.769,3.2-15.689,5.583-51.3,5.583-51.3a114.714,114.714,0,0,0-15-5.044C444.931,478.7,444.192,517.63,444.192,517.63Z" transform="translate(-444.192 -461.286)" fill="#0b0c0b"/>
          </g>
          <g id="Group_264" data-name="Group 264" transform="translate(0 99.89)">
            <g id="Group_234" data-name="Group 234">
              <g id="Group_233" data-name="Group 233">
                <path id="Path_236" data-name="Path 236" d="M431.948,574.791h24.7a2.286,2.286,0,0,0,2.267-1.981,2.249,2.249,0,0,0,.014-.482l-1-12.971a14.419,14.419,0,0,0-2.467-.815,2.5,2.5,0,0,1-1.831-1.661c-.018-.062-.034-.126-.05-.189-.567-2.5-4.166-3.29-4.831-.851q-.129.473-.224.917c-.016.073-.032.148-.045.218-.107.525-.185,1.008-.238,1.431l-.005.027a13.853,13.853,0,0,0-.122,1.763q-.489.623-.949,1.226c-.157.2-.306.4-.456.595-.324.422-.64.833-.951,1.228-.143.187-.285.366-.429.543-.342.428-.68.835-1.018,1.214-.152.173-.3.34-.461.5a7.107,7.107,0,0,1-4.075,2.465c-2.679.368-7.054.663-9.167,4.593a1.371,1.371,0,0,0-.106.25A1.523,1.523,0,0,0,431.948,574.791Z" transform="translate(-430.422 -554.365)" fill="#da8a14"/>
              </g>
            </g>
            <g id="Group_236" data-name="Group 236" transform="translate(0 18.444)">
              <g id="Group_235" data-name="Group 235">
                <path id="Path_237" data-name="Path 237" d="M431.948,573.532h24.7a2.286,2.286,0,0,0,2.267-1.981H430.5A1.523,1.523,0,0,0,431.948,573.532Z" transform="translate(-430.422 -571.551)" fill="#b26c1c"/>
              </g>
            </g>
            <g id="Group_244" data-name="Group 244" transform="translate(16.282 7.056)">
              <g id="Group_239" data-name="Group 239">
                <g id="Group_238" data-name="Group 238">
                  <g id="Group_237" data-name="Group 237">
                    <path id="Path_238" data-name="Path 238" d="M445.594,561.535a4.3,4.3,0,0,0,2.044,1.4q.3.122.654.238l.214-.645c-.234-.077-.444-.155-.635-.231-1.35-.545-1.72-1.081-1.82-1.355C445.893,561.14,445.744,561.339,445.594,561.535Z" transform="translate(-445.594 -560.94)" fill="#fff"/>
                  </g>
                </g>
              </g>
              <g id="Group_243" data-name="Group 243" transform="translate(2.04 1.143)">
                <g id="Group_242" data-name="Group 242">
                  <g id="Group_241" data-name="Group 241">
                    <g id="Group_240" data-name="Group 240">
                      <circle id="Ellipse_66" data-name="Ellipse 66" cx="0.766" cy="0.766" r="0.766" fill="#fff"/>
                    </g>
                  </g>
                </g>
              </g>
            </g>
            <g id="Group_252" data-name="Group 252" transform="translate(14.902 8.879)">
              <g id="Group_247" data-name="Group 247">
                <g id="Group_246" data-name="Group 246">
                  <g id="Group_245" data-name="Group 245">
                    <path id="Path_239" data-name="Path 239" d="M444.308,563.181A4.835,4.835,0,0,0,446,564.245c.236.1.495.2.782.293l.214-.647c-.267-.088-.509-.176-.721-.265a3.874,3.874,0,0,1-1.537-.987C444.595,562.825,444.452,563,444.308,563.181Z" transform="translate(-444.308 -562.638)" fill="#fff"/>
                  </g>
                </g>
              </g>
              <g id="Group_251" data-name="Group 251" transform="translate(1.689 0.811)">
                <g id="Group_250" data-name="Group 250">
                  <g id="Group_249" data-name="Group 249">
                    <g id="Group_248" data-name="Group 248">
                      <path id="Path_240" data-name="Path 240" d="M445.882,564.16a.766.766,0,1,0,.766-.766A.766.766,0,0,0,445.882,564.16Z" transform="translate(-445.882 -563.394)" fill="#fff"/>
                    </g>
                  </g>
                </g>
              </g>
            </g>
            <g id="Group_260" data-name="Group 260" transform="translate(13.422 10.635)">
              <g id="Group_255" data-name="Group 255">
                <g id="Group_254" data-name="Group 254">
                  <g id="Group_253" data-name="Group 253">
                    <path id="Path_241" data-name="Path 241" d="M442.929,564.776a4.927,4.927,0,0,0,1.639,1.02c.238.1.5.2.8.3l.21-.647c-.269-.088-.511-.179-.727-.269a4.221,4.221,0,0,1-1.456-.9C443.238,564.448,443.087,564.615,442.929,564.776Z" transform="translate(-442.929 -564.275)" fill="#fff"/>
                  </g>
                </g>
              </g>
              <g id="Group_259" data-name="Group 259" transform="translate(1.638 0.728)">
                <g id="Group_258" data-name="Group 258">
                  <g id="Group_257" data-name="Group 257">
                    <g id="Group_256" data-name="Group 256">
                      <path id="Path_242" data-name="Path 242" d="M444.455,565.719a.766.766,0,1,0,.766-.766A.767.767,0,0,0,444.455,565.719Z" transform="translate(-444.455 -564.953)" fill="#fff"/>
                    </g>
                  </g>
                </g>
              </g>
            </g>
            <g id="Group_263" data-name="Group 263" transform="translate(17.814 2.61)">
              <g id="Group_262" data-name="Group 262">
                <g id="Group_261" data-name="Group 261">
                  <path id="Path_243" data-name="Path 243" d="M447.022,558.228a17.318,17.318,0,0,1,2.2.124l-.014-1.237a5.6,5.6,0,0,0-1.949-.318C447.153,557.322,447.076,557.8,447.022,558.228Z" transform="translate(-447.022 -556.797)" fill="#fff"/>
                </g>
              </g>
            </g>
          </g>
        </g>
        <g id="Group_306" data-name="Group 306" transform="translate(18.468)">
          <g id="Group_304" data-name="Group 304" transform="translate(19.185 5.757)">
            <g id="Group_266" data-name="Group 266">
              <path id="Path_244" data-name="Path 244" d="M465.508,466.157s.194,20.551,3.111,51.3c1.9,16.754,4.017,37.775,6.366,51.769h7.563l1.067-51.769s1.731-31.858-2.03-53.81Z" transform="translate(-465.508 -463.647)" fill="#212121"/>
            </g>
            <g id="Group_303" data-name="Group 303" transform="translate(2.842 98.837)">
              <g id="Group_269" data-name="Group 269">
                <g id="Group_268" data-name="Group 268">
                  <g id="Group_267" data-name="Group 267">
                    <path id="Path_245" data-name="Path 245" d="M468.167,572.964c.218,4.352,13.825,2.853,16,1.546a3.082,3.082,0,0,0,1.258-2.654,20.693,20.693,0,0,0-1.046-6.163c-.87-3.066-.751-3.009-1.355-5.1,0,0,.157-3.408-4.3-4.709s-6.092,7.183-6.854,8.815c-.7,1.495-3.405,3.54-3.686,7.219A8.491,8.491,0,0,0,468.167,572.964Z" transform="translate(-468.156 -555.745)" fill="#da8a14"/>
                  </g>
                </g>
              </g>
              <g id="Group_272" data-name="Group 272" transform="translate(5.817 5.446)">
                <g id="Group_271" data-name="Group 271">
                  <g id="Group_270" data-name="Group 270">
                    <path id="Path_246" data-name="Path 246" d="M480.745,562.972l.356-.547c-.165-.108-4.1-2.63-7.524-1.129l.263.6C476.944,560.532,480.707,562.947,480.745,562.972Z" transform="translate(-473.577 -560.82)" fill="#fff"/>
                  </g>
                </g>
              </g>
              <g id="Group_275" data-name="Group 275" transform="translate(5.43 9.234)">
                <g id="Group_274" data-name="Group 274">
                  <g id="Group_273" data-name="Group 273">
                    <path id="Path_247" data-name="Path 247" d="M480.384,566.5l.356-.547c-.166-.108-4.1-2.63-7.524-1.129l.262.6C476.583,564.06,480.345,566.476,480.384,566.5Z" transform="translate(-473.216 -564.349)" fill="#fff"/>
                  </g>
                </g>
              </g>
              <g id="Group_278" data-name="Group 278" transform="translate(5.624 7.34)">
                <g id="Group_277" data-name="Group 277">
                  <g id="Group_276" data-name="Group 276">
                    <path id="Path_248" data-name="Path 248" d="M480.564,564.736l.357-.546c-.166-.108-4.1-2.631-7.524-1.13l.262.6C476.764,562.3,480.526,564.711,480.564,564.736Z" transform="translate(-473.397 -562.584)" fill="#fff"/>
                  </g>
                </g>
              </g>
              <g id="Group_281" data-name="Group 281" transform="translate(12.468 6.693)">
                <g id="Group_280" data-name="Group 280">
                  <g id="Group_279" data-name="Group 279">
                    <path id="Path_249" data-name="Path 249" d="M479.774,562.715a.735.735,0,1,0,.735-.734A.736.736,0,0,0,479.774,562.715Z" transform="translate(-479.774 -561.981)" fill="#fff"/>
                  </g>
                </g>
              </g>
              <g id="Group_284" data-name="Group 284" transform="translate(12.429 8.487)">
                <g id="Group_283" data-name="Group 283">
                  <g id="Group_282" data-name="Group 282">
                    <path id="Path_250" data-name="Path 250" d="M479.738,564.388a.735.735,0,1,0,.734-.735A.734.734,0,0,0,479.738,564.388Z" transform="translate(-479.738 -563.653)" fill="#fff"/>
                  </g>
                </g>
              </g>
              <g id="Group_287" data-name="Group 287" transform="translate(12.041 10.281)">
                <g id="Group_286" data-name="Group 286">
                  <g id="Group_285" data-name="Group 285">
                    <path id="Path_251" data-name="Path 251" d="M479.376,566.06a.735.735,0,1,0,.735-.735A.735.735,0,0,0,479.376,566.06Z" transform="translate(-479.376 -565.325)" fill="#fff"/>
                  </g>
                </g>
              </g>
              <g id="Group_290" data-name="Group 290" transform="translate(4.827 9.222)">
                <g id="Group_289" data-name="Group 289">
                  <g id="Group_288" data-name="Group 288">
                    <path id="Path_252" data-name="Path 252" d="M472.654,565.072a.734.734,0,1,0,.734-.734A.734.734,0,0,0,472.654,565.072Z" transform="translate(-472.654 -564.338)" fill="#fff"/>
                  </g>
                </g>
              </g>
              <g id="Group_293" data-name="Group 293" transform="translate(5.021 7.264)">
                <g id="Group_292" data-name="Group 292">
                  <g id="Group_291" data-name="Group 291">
                    <path id="Path_253" data-name="Path 253" d="M472.835,563.247a.734.734,0,1,0,.734-.734A.734.734,0,0,0,472.835,563.247Z" transform="translate(-472.835 -562.513)" fill="#fff"/>
                  </g>
                </g>
              </g>
              <g id="Group_296" data-name="Group 296" transform="translate(5.214 5.305)">
                <g id="Group_295" data-name="Group 295">
                  <g id="Group_294" data-name="Group 294">
                    <path id="Path_254" data-name="Path 254" d="M473.015,561.422a.735.735,0,1,0,.735-.734A.735.735,0,0,0,473.015,561.422Z" transform="translate(-473.015 -560.688)" fill="#fff"/>
                  </g>
                </g>
              </g>
              <g id="Group_299" data-name="Group 299" transform="translate(0 16.112)">
                <g id="Group_298" data-name="Group 298">
                  <g id="Group_297" data-name="Group 297">
                    <path id="Path_255" data-name="Path 255" d="M468.167,571.865c.218,4.352,13.825,2.853,16,1.546a3.082,3.082,0,0,0,1.258-2.654,16,16,0,0,1-7.712,1.9c-4.615.083-7.944-.851-9.533-1.842A8.491,8.491,0,0,0,468.167,571.865Z" transform="translate(-468.156 -570.758)" fill="#b26c1c"/>
                  </g>
                </g>
              </g>
              <g id="Group_302" data-name="Group 302" transform="translate(8.171 1.459)">
                <g id="Group_301" data-name="Group 301">
                  <g id="Group_300" data-name="Group 300">
                    <path id="Path_256" data-name="Path 256" d="M476.239,557.124a7.259,7.259,0,0,1,3.828.762l-.2,1.378a15.029,15.029,0,0,0-4.1-.616A3.237,3.237,0,0,1,476.239,557.124Z" transform="translate(-475.77 -557.104)" fill="#fff"/>
                  </g>
                </g>
              </g>
            </g>
          </g>
          <g id="Group_305" data-name="Group 305">
            <path id="Path_257" data-name="Path 257" d="M481.826,458.654a73.2,73.2,0,0,1,2.535,17.131s-12.536,5.486-28.484-.576a12.848,12.848,0,0,1-7.5-16.321l.084-.234S468.857,457.817,481.826,458.654Z" transform="translate(-447.631 -458.282)" fill="#212121"/>
          </g>
        </g>
      </g>
      <g id="Group_326" data-name="Group 326" transform="translate(444.932 396.775)">
        <g id="Group_311" data-name="Group 311">
          <g id="Group_310" data-name="Group 310">
            <g id="Group_309" data-name="Group 309">
              <g id="Group_308" data-name="Group 308">
                <path id="Path_258" data-name="Path 258" d="M443.943,468.432a65.551,65.551,0,0,0,8.159,3.183q1.128.356,2.278.664a50.343,50.343,0,0,0,12.392,1.8,37.455,37.455,0,0,0,20.516-5.492L482.865,442.3l7.321-42.761-10.953-3.752-.588-.2-1.079-.368-.457-.157-.923-.316-1.951-.67-11.586,1.55-.7.093-1.188.159-.663.089-8.288,1.106Z" transform="translate(-443.943 -394.075)" fill="#e9561d"/>
              </g>
            </g>
          </g>
        </g>
        <path id="Path_259" data-name="Path 259" d="M453.92,472.415a50.359,50.359,0,0,0,12.392,1.805q-.279-1.769-.458-3.66-.093-.94-.157-1.907-.132-1.9-.178-3.889-.023-.94-.026-1.9-.008-1.9.048-3.869c.019-.63.042-1.26.069-1.9q.084-1.908.219-3.859.064-.94.144-1.889.151-1.912.351-3.851c.064-.627.131-1.258.2-1.887q.212-1.919.464-3.844c.082-.629.165-1.26.252-1.889q.262-1.924.556-3.84.145-.947.3-1.889.308-1.933.641-3.843c.108-.633.221-1.264.333-1.891q.349-1.945.715-3.845.182-.948.368-1.891.386-1.957.783-3.854.2-.959.4-1.9.425-1.978.849-3.859.214-.964.432-1.9c.307-1.337.612-2.63.91-3.871.155-.65.31-1.288.464-1.908.336-1.372.663-2.67.976-3.883q.256-1,.5-1.915c.443-1.686.845-3.165,1.188-4.4l-.924-.316-1.951-.669-11.586,1.55-.7.093q-.312,1.639-.612,3.285-.171.932-.335,1.867-.328,1.872-.639,3.749-.158.937-.307,1.873-.3,1.875-.586,3.749-.143.939-.28,1.873-.275,1.88-.536,3.749-.132.942-.257,1.88-.254,1.885-.489,3.753-.119.945-.235,1.883-.23,1.891-.444,3.755-.109.95-.213,1.89-.211,1.9-.4,3.761c-.065.634-.131,1.265-.192,1.893q-.193,1.908-.362,3.767-.089.959-.173,1.9-.171,1.921-.319,3.773-.079.964-.151,1.906-.148,1.937-.274,3.781c-.047.647-.088,1.282-.13,1.91q-.127,1.959-.227,3.795-.056.975-.1,1.915c-.068,1.33-.125,2.6-.171,3.808-.028.66-.05,1.3-.071,1.923-.045,1.377-.076,2.655-.094,3.825q-.016,1.024-.017,1.935C453.87,470.361,453.886,471.49,453.92,472.415Z" transform="translate(-443.216 -394.065)" fill="#fff"/>
        <g id="Group_325" data-name="Group 325" transform="translate(10.658 5.075)">
          <g id="Group_312" data-name="Group 312" transform="translate(6.671)">
            <path id="Path_260" data-name="Path 260" d="M460.09,400.671a79.157,79.157,0,0,0,10.085.586q2.094,0,4.337-.084.256-1,.5-1.915a88.014,88.014,0,0,1-14.582-.455Q460.254,399.736,460.09,400.671Z" transform="translate(-460.09 -398.804)" fill="#ec9d72"/>
          </g>
          <g id="Group_313" data-name="Group 313" transform="translate(5.725 5.616)">
            <path id="Path_261" data-name="Path 261" d="M459.209,405.91a79.59,79.59,0,0,0,11.152.706q1.357,0,2.775-.034c.155-.65.31-1.288.464-1.908a84.267,84.267,0,0,1-14.084-.636Q459.358,404.974,459.209,405.91Z" transform="translate(-459.209 -404.037)" fill="#ec9d72"/>
          </g>
          <g id="Group_314" data-name="Group 314" transform="translate(4.859 11.237)">
            <path id="Path_262" data-name="Path 262" d="M458.4,411.148a79.893,79.893,0,0,0,12.161.83c.426,0,.855,0,1.29-.008q.214-.964.432-1.9a81.752,81.752,0,0,1-13.6-.794Q458.539,410.213,458.4,411.148Z" transform="translate(-458.402 -409.275)" fill="#ec9d72"/>
          </g>
          <g id="Group_315" data-name="Group 315" transform="translate(4.067 16.859)">
            <path id="Path_263" data-name="Path 263" d="M457.664,416.393a80.322,80.322,0,0,0,12.993.95q.2-.959.4-1.9a78.753,78.753,0,0,1-13.138-.933Q457.788,415.455,457.664,416.393Z" transform="translate(-457.664 -414.513)" fill="#ec9d72"/>
          </g>
          <g id="Group_316" data-name="Group 316" transform="translate(3.343 22.492)">
            <path id="Path_264" data-name="Path 264" d="M456.989,421.645a78.415,78.415,0,0,0,12.566,1.058q.182-.948.368-1.891a77.211,77.211,0,0,1-12.7-1.051Q457.1,420.707,456.989,421.645Z" transform="translate(-456.989 -419.762)" fill="#ec9d72"/>
          </g>
          <g id="Group_317" data-name="Group 317" transform="translate(2.686 28.13)">
            <path id="Path_265" data-name="Path 265" d="M456.377,426.906a77.218,77.218,0,0,0,12.175,1.149c.108-.633.221-1.264.333-1.891a75.075,75.075,0,0,1-12.3-1.148Q456.48,425.966,456.377,426.906Z" transform="translate(-456.377 -425.016)" fill="#ec9d72"/>
          </g>
          <g id="Group_318" data-name="Group 318" transform="translate(2.092 33.781)">
            <path id="Path_266" data-name="Path 266" d="M455.823,432.175a76.1,76.1,0,0,0,11.832,1.227q.145-.947.3-1.889a74.168,74.168,0,0,1-11.937-1.231C455.95,430.916,455.884,431.547,455.823,432.175Z" transform="translate(-455.823 -430.282)" fill="#ec9d72"/>
          </g>
          <g id="Group_319" data-name="Group 319" transform="translate(1.557 39.441)">
            <path id="Path_267" data-name="Path 267" d="M455.325,437.455a75.632,75.632,0,0,0,11.558,1.289c.082-.629.165-1.26.252-1.889a73.6,73.6,0,0,1-11.638-1.3Q455.409,436.515,455.325,437.455Z" transform="translate(-455.325 -435.556)" fill="#ec9d72"/>
          </g>
          <g id="Group_320" data-name="Group 320" transform="translate(1.087 45.114)">
            <path id="Path_268" data-name="Path 268" d="M454.887,442.748a75.334,75.334,0,0,0,11.363,1.34c.064-.627.131-1.258.2-1.887a73.1,73.1,0,0,1-11.413-1.36Q454.959,441.806,454.887,442.748Z" transform="translate(-454.887 -440.842)" fill="#ec9d72"/>
          </g>
          <g id="Group_321" data-name="Group 321" transform="translate(0.684 50.801)">
            <path id="Path_269" data-name="Path 269" d="M454.511,448.051a75.4,75.4,0,0,0,11.272,1.389q.064-.94.144-1.889a73.132,73.132,0,0,1-11.286-1.41C454.594,446.788,454.553,447.423,454.511,448.051Z" transform="translate(-454.511 -446.141)" fill="#ec9d72"/>
          </g>
          <g id="Group_322" data-name="Group 322" transform="translate(0.353 56.506)">
            <path id="Path_270" data-name="Path 270" d="M454.2,453.372a76.557,76.557,0,0,0,11.314,1.435c.019-.63.042-1.26.069-1.9a73.955,73.955,0,0,1-11.28-1.453Q454.25,452.432,454.2,453.372Z" transform="translate(-454.203 -451.457)" fill="#ec9d72"/>
          </g>
          <g id="Group_323" data-name="Group 323" transform="translate(0.112 62.228)">
            <path id="Path_271" data-name="Path 271" d="M453.978,458.712a78.075,78.075,0,0,0,11.533,1.473q-.023-.94-.026-1.9a74.978,74.978,0,0,1-11.437-1.5C454.021,457.449,454,458.092,453.978,458.712Z" transform="translate(-453.978 -456.789)" fill="#ec9d72"/>
          </g>
          <g id="Group_324" data-name="Group 324" transform="translate(0 67.976)">
            <path id="Path_272" data-name="Path 272" d="M453.874,464.08a80.965,80.965,0,0,0,11.98,1.51q-.093-.94-.157-1.907a77.353,77.353,0,0,1-11.806-1.538Q453.875,463.169,453.874,464.08Z" transform="translate(-453.874 -462.145)" fill="#ec9d72"/>
          </g>
        </g>
      </g>
      <g id="Group_327" data-name="Group 327" transform="translate(449.434 365.759)">
        <path id="Path_273" data-name="Path 273" d="M450.249,365.174s-2.935,1.936-1.883,7.193,3.084,5.819,3.084,5.819S454.53,366.544,450.249,365.174Z" transform="translate(-448.138 -365.174)" fill="#23263c"/>
      </g>
      <g id="Group_328" data-name="Group 328" transform="translate(465.045 388.547)">
        <path id="Path_274" data-name="Path 274" d="M462.684,388.188l.371,6.648.171,3.047c3.829,2.833,10.057-1.067,10.057-1.067l.665-9.854c-1.772-1.194-6.338-.2-9.082.56C463.573,387.883,462.684,388.188,462.684,388.188Z" transform="translate(-462.684 -386.408)" fill="#f99b6e"/>
      </g>
      <g id="Group_329" data-name="Group 329" transform="translate(465.045 389.662)">
        <path id="Path_275" data-name="Path 275" d="M462.684,388.112l.371,6.648c4.5-1.04,8.264-7.271,8.264-7.271l-6.454-.043C463.573,387.807,462.684,388.112,462.684,388.112Z" transform="translate(-462.684 -387.447)" fill="#f27355"/>
      </g>
      <g id="Group_330" data-name="Group 330" transform="translate(449.95 357.182)">
        <path id="Path_276" data-name="Path 276" d="M450.805,368.437s-3.987-.383-1.193-6.84c2.875-4.531,6.481-4.308,14.523-4.415,12.323,1.706,16.317,6.078,16,12.808s-.244,15.751-3.294,19.116-5.133-1.392-6.711-5.6S458.818,366.411,450.805,368.437Z" transform="translate(-448.619 -357.182)" fill="#23263c"/>
      </g>
      <g id="Group_331" data-name="Group 331" transform="translate(451.484 362.432)">
        <path id="Path_277" data-name="Path 277" d="M450.052,373.8c0,.228.009.458.015.692a104.071,104.071,0,0,0,1.556,13.386,7.9,7.9,0,0,0,9.338,6.4c5.249-1.06,11.722-2.669,14.676-4.61a3.187,3.187,0,0,0,1.582-1.854,43.452,43.452,0,0,0,.477-5.8c.208-6.777-.285-15.232-.285-15.232-6.309-7.835-23.893-4.778-26.571.955A15.274,15.274,0,0,0,450.052,373.8Z" transform="translate(-450.048 -362.074)" fill="#f99b6e"/>
      </g>
      <g id="Group_332" data-name="Group 332" transform="translate(450.943 359.793)">
        <path id="Path_278" data-name="Path 278" d="M477.763,375.995s-2.809-1.83-5.175,1.436h-1.84s.105-3.781-.789-5.831-4.416-2-4.942-4.417c0,0-8.316,3.31-14.28,1.076s11.913-12.17,20.536-7.333S479.1,369.559,477.763,375.995Z" transform="translate(-449.544 -359.615)" fill="#23263c"/>
      </g>
      <g id="Group_333" data-name="Group 333" transform="translate(474.49 382.382)">
        <path id="Path_279" data-name="Path 279" d="M474.068,388.315a3.187,3.187,0,0,0,1.582-1.854,43.452,43.452,0,0,0,.477-5.8l-4.642,3.189S471.425,387.158,474.068,388.315Z" transform="translate(-471.485 -380.664)" fill="#23263c"/>
      </g>
      <g id="Group_337" data-name="Group 337" transform="translate(473.895 375.556)">
        <g id="Group_334" data-name="Group 334" transform="translate(0.092)">
          <path id="Path_280" data-name="Path 280" d="M471.017,376.356s2.817-3.414,5.175-1.436c2.6,2.179.609,9.567-4.672,9.4Z" transform="translate(-471.017 -374.304)" fill="#f99b6e"/>
        </g>
        <g id="Group_335" data-name="Group 335" transform="translate(0 2.75)">
          <path id="Path_281" data-name="Path 281" d="M471.4,382.53a.464.464,0,0,0,.46-.412c.43-3.737,2.648-4.313,2.741-4.336a.464.464,0,0,0-.206-.906c-.12.027-2.948.707-3.458,5.136a.464.464,0,0,0,.409.514A.432.432,0,0,0,471.4,382.53Z" transform="translate(-470.931 -376.866)" fill="#f27355"/>
        </g>
        <g id="Group_336" data-name="Group 336" transform="translate(0.931 4.488)">
          <path id="Path_282" data-name="Path 282" d="M474.3,380.042a.464.464,0,0,0,.348-.771,2.631,2.631,0,0,0-2.482-.718.464.464,0,1,0,.2.907,1.7,1.7,0,0,1,1.59.43A.467.467,0,0,0,474.3,380.042Z" transform="translate(-471.799 -378.485)" fill="#f27355"/>
        </g>
      </g>
      <g id="Group_338" data-name="Group 338" transform="translate(480.84 473.854)">
        <path id="Path_283" data-name="Path 283" d="M480.088,465.9s-2.064.66-2.686,1.865c0,0,0,7.639,3.848,10.97,0,0,1.891-4.6,3.848-9Z" transform="translate(-477.402 -465.899)" fill="#f99b6e"/>
      </g>
      <path id="Path_284" data-name="Path 284" d="M487.9,399.3s7.683,24.016,8.362,36.366c0,0,0,23.1-11.267,38.941l-5.011-3.838s6.316-22.982,6.316-31.944c0,0-6.4-16.644-7.445-23.2C478.853,415.626,483.153,399.3,487.9,399.3Z" transform="translate(3.544 3.082)" fill="#e9561d"/>
    </g>
    <g id="Group_375" data-name="Group 375" transform="translate(544.46 89.389)">
      <g id="Group_346" data-name="Group 346" transform="translate(272.865 400.456)">
        <g id="Group_340" data-name="Group 340">
          <path id="Path_285" data-name="Path 285" d="M339.309,403.155v33.054a5.075,5.075,0,0,1-5,5.153h-68.2a5.075,5.075,0,0,1-5-5.153V403.155a5.075,5.075,0,0,1,5-5.154h68.2A5.075,5.075,0,0,1,339.309,403.155Z" transform="translate(-261.116 -398.001)" fill="#f1aa49"/>
        </g>
        <g id="Group_342" data-name="Group 342">
          <path id="Path_286" data-name="Path 286" d="M339.309,403.155v2.861H261.116v-2.861a5.075,5.075,0,0,1,5-5.154h68.2A5.075,5.075,0,0,1,339.309,403.155Z" transform="translate(-261.116 -398.001)" fill="#ec8d18"/>
          <g id="Group_341" data-name="Group 341" transform="translate(3.36 3.305)">
            <ellipse id="Ellipse_67" data-name="Ellipse 67" cx="1.047" cy="1.083" rx="1.047" ry="1.083" transform="translate(0 0)" fill="#fff"/>
            <path id="Path_287" data-name="Path 287" d="M270.073,402.087A1.048,1.048,0,1,1,269.026,401,1.065,1.065,0,0,1,270.073,402.087Z" transform="translate(-263.785 -401.004)" fill="#fff"/>
            <path id="Path_288" data-name="Path 288" d="M273.884,402.087A1.049,1.049,0,1,1,272.835,401,1.066,1.066,0,0,1,273.884,402.087Z" transform="translate(-263.402 -401.004)" fill="#fff"/>
          </g>
        </g>
        <path id="Rectangle_155" data-name="Rectangle 155" d="M.834,0H16.721a.834.834,0,0,1,.834.834v13.38a.834.834,0,0,1-.834.834H.835A.835.835,0,0,1,0,14.215V.834A.834.834,0,0,1,.834,0Z" transform="translate(9.7 12.806)" fill="#fff"/>
        <g id="Group_343" data-name="Group 343" transform="translate(8.6 32.615)">
          <path id="Path_289" data-name="Path 289" d="M327.709,429.914H270.033a1.122,1.122,0,0,1-1.1-1.14h0a1.122,1.122,0,0,1,1.1-1.14h57.676a1.123,1.123,0,0,1,1.1,1.14h0A1.123,1.123,0,0,1,327.709,429.914Z" transform="translate(-268.93 -427.633)" fill="#fff"/>
        </g>
        <g id="Group_344" data-name="Group 344" transform="translate(31.286 24.003)">
          <path id="Path_290" data-name="Path 290" d="M325.635,422.09H290.644a1.122,1.122,0,0,1-1.1-1.14h0a1.122,1.122,0,0,1,1.1-1.14h34.991a1.123,1.123,0,0,1,1.1,1.14h0A1.122,1.122,0,0,1,325.635,422.09Z" transform="translate(-289.541 -419.809)" fill="#fff"/>
        </g>
        <g id="Group_345" data-name="Group 345" transform="translate(31.286 15.912)">
          <path id="Path_291" data-name="Path 291" d="M312.316,414.739H290.644a1.122,1.122,0,0,1-1.1-1.14h0a1.122,1.122,0,0,1,1.1-1.14h21.672a1.123,1.123,0,0,1,1.1,1.14h0A1.123,1.123,0,0,1,312.316,414.739Z" transform="translate(-289.541 -412.458)" fill="#fff"/>
        </g>
      </g>
      <g id="Group_350" data-name="Group 350" transform="translate(401.15 373.611)">
        <path id="Path_292" data-name="Path 292" d="M398.655,373.611H366.2a3.257,3.257,0,0,0-3.205,3.307v18.122a3.257,3.257,0,0,0,3.205,3.307h1.748v8.292l8.024-8.292h22.688a3.257,3.257,0,0,0,3.206-3.307V376.918A3.257,3.257,0,0,0,398.655,373.611Z" transform="translate(-362.991 -373.611)" fill="#f1aa49"/>
        <g id="Group_347" data-name="Group 347" transform="translate(6.692 17.752)">
          <path id="Path_293" data-name="Path 293" d="M370.14,389.74H377.8a1.087,1.087,0,0,1,1.07,1.105h0a1.088,1.088,0,0,1-1.07,1.105H370.14a1.088,1.088,0,0,1-1.069-1.105h0A1.087,1.087,0,0,1,370.14,389.74Z" transform="translate(-369.071 -389.74)" fill="#fff"/>
        </g>
        <g id="Group_348" data-name="Group 348" transform="translate(6.692 12.216)">
          <path id="Path_294" data-name="Path 294" d="M370.14,384.71h14.111a1.088,1.088,0,0,1,1.07,1.105h0a1.087,1.087,0,0,1-1.07,1.105H370.14a1.087,1.087,0,0,1-1.069-1.105h0A1.088,1.088,0,0,1,370.14,384.71Z" transform="translate(-369.071 -384.71)" fill="#fff"/>
        </g>
        <g id="Group_349" data-name="Group 349" transform="translate(6.692 6.835)">
          <path id="Path_295" data-name="Path 295" d="M370.14,379.821H394.4a1.088,1.088,0,0,1,1.07,1.106h0a1.088,1.088,0,0,1-1.07,1.105H370.14a1.088,1.088,0,0,1-1.069-1.105h0A1.088,1.088,0,0,1,370.14,379.821Z" transform="translate(-369.071 -379.821)" fill="#fff"/>
        </g>
      </g>
      <g id="Group_351" data-name="Group 351" transform="translate(422.169 480.31)">
        <path id="Path_296" data-name="Path 296" d="M377.113,521.472H414.7a14.973,14.973,0,0,0,14.7-13.615l5.421-58.3H397.252l-.767,33.807Z" transform="translate(-377.113 -449.552)" fill="#b4bee1"/>
        <path id="Path_297" data-name="Path 297" d="M377.113,521.472H414.7a14.973,14.973,0,0,0,14.7-13.615l5.421-58.3" transform="translate(-377.113 -449.552)" fill="none" stroke="#28314a" stroke-linecap="round" stroke-linejoin="round" stroke-width="2.653"/>
        <line id="Line_3" data-name="Line 3" y2="41.177" transform="translate(21.492 73.021)" fill="none" stroke="#28314a" stroke-miterlimit="10" stroke-width="2.496"/>
      </g>
      <g id="Group_362" data-name="Group 362" transform="translate(329.598 440.599)">
        <rect id="Rectangle_156" data-name="Rectangle 156" width="121.159" height="1.948" transform="translate(121.159 76.103) rotate(180)" fill="#28314a"/>
        <path id="Path_298" data-name="Path 298" d="M390.738,560.369l1.287,4.764-6.26,1.961-1.959-5.882Z" transform="translate(-283.868 -398.687)" fill="#efae86"/>
        <path id="Path_299" data-name="Path 299" d="M355.764,557.228v3.825h5.543l.619-3.825Z" transform="translate(-286.691 -399.004)" fill="#efae86"/>
        <g id="Group_354" data-name="Group 354" transform="translate(67.114 34.621)">
          <g id="Group_352" data-name="Group 352" transform="translate(0 5.835)">
            <path id="Path_300" data-name="Path 300" d="M397.834,457.345,389.463,478.7l-.186.474a3.162,3.162,0,0,1-2.942,2.033l-23.839-.176a1.809,1.809,0,0,1-.24-3.589l23.59-3.56-3.127,2.506,5.635-22.294a4.992,4.992,0,0,1,6.106-3.7,5.189,5.189,0,0,1,3.577,6.311A5.945,5.945,0,0,1,397.834,457.345Z" transform="translate(-353.302 -450.229)" fill="#e49c74"/>
            <path id="Path_301" data-name="Path 301" d="M365.768,474.582l-8.14-.174a3.948,3.948,0,0,0-3.643,4.195h11.888Z" transform="translate(-353.984 -447.796)" fill="#e49c74"/>
          </g>
          <g id="Group_353" data-name="Group 353" transform="translate(31.352)">
            <path id="Path_302" data-name="Path 302" d="M382.469,460.477l13.034,3.29,2.139-12.006a5.791,5.791,0,0,0-4.8-6.771h0a5.708,5.708,0,0,0-6.209,3.77Z" transform="translate(-382.469 -444.927)" fill="#dd4268"/>
          </g>
        </g>
        <path id="Path_303" data-name="Path 303" d="M398.912,480.267l-40.161,21.062a10.926,10.926,0,0,0-5.734,10.319l3.026,53.327H362.2l8.313-57.057,31.267-22.688Z" transform="translate(-286.969 -406.75)" fill="#1e2438"/>
        <path id="Path_304" data-name="Path 304" d="M389.288,414.158s11.161-3.921,17.024,7a11.1,11.1,0,0,0,1.168,1.8c1.191,1.453,3.674,4.13,6.411,5,10.861,3.444,17.735,24.669-3.885,26.558-27.054,2.363-34.737-3.15-30.867-14.3,2.76-7.949.3-13.592.3-13.592Z" transform="translate(-284.432 -413.473)" fill="#171e2d"/>
        <path id="Path_305" data-name="Path 305" d="M397.409,439.976l-5.775,2.655a9.762,9.762,0,0,0-5.6,9.007c.089,7.836,1.809,27.292,8.215,34.737h19.524c3.024-13.784,1.281-34.969,1.281-34.969a9.881,9.881,0,0,0-8.495-10.292Z" transform="translate(-283.644 -410.805)" fill="#dd4268"/>
        <g id="Group_357" data-name="Group 357" transform="translate(92.657 0.685)">
          <g id="Group_356" data-name="Group 356">
            <g id="Group_355" data-name="Group 355" transform="translate(3.677 6.664)">
              <path id="Path_306" data-name="Path 306" d="M397.381,447.374h0a3.766,3.766,0,0,1-4.14-3.347L391.652,431.2l7.427-.893,1.578,12.737A3.84,3.84,0,0,1,397.381,447.374Z" transform="translate(-379.412 -419.127)" fill="#eaa378"/>
              <path id="Path_307" data-name="Path 307" d="M394.094,441.562l-3.749.506a7.348,7.348,0,0,1-8.18-6.5l-1.634-12.96,18.221-2.456,1.634,12.958A7.5,7.5,0,0,1,394.094,441.562Z" transform="translate(-380.531 -420.15)" fill="#efae86"/>
            </g>
            <path id="Path_308" data-name="Path 308" d="M401.088,427.642l-1.553,3.332s-2.07,1.854-2.657-2.8c-.5-3.946-3.268-3.261-3.268-3.261s-9.5,7.424-15.073,2.33c-4.4-4.021,2.712-11.379,10.852-13.143l10.679,4.821Z" transform="translate(-377.19 -414.095)" fill="#171e2d"/>
            <path id="Path_309" data-name="Path 309" d="M396.516,429.871a3.037,3.037,0,0,0,3.354,2.719,3.094,3.094,0,0,0,2.629-3.466,3.036,3.036,0,0,0-3.354-2.719A3.1,3.1,0,0,0,396.516,429.871Z" transform="translate(-375.247 -412.858)" fill="#efae86"/>
            <path id="Path_310" data-name="Path 310" d="M398.743,430.594a.545.545,0,0,0,.6.489.556.556,0,0,0,.474-.624.548.548,0,0,0-.6-.49A.558.558,0,0,0,398.743,430.594Z" transform="translate(-375.022 -412.498)" fill="#fff"/>
          </g>
          <path id="Path_311" data-name="Path 311" d="M384.752,435l5.114-1.124s.247,2.3-2.555,2.71A2.087,2.087,0,0,1,384.752,435Z" transform="translate(-376.429 -412.104)" fill="#fff"/>
        </g>
        <path id="Path_312" data-name="Path 312" d="M416.257,482.131H396.733l-31.235,19.5a9,9,0,0,0-3.409,11.138l23.977,56.313,6.932-.842L380.111,513.9c10.815-.471,30.9-2.161,36.147-8.2C425.138,495.468,416.257,482.131,416.257,482.131Z" transform="translate(-286.127 -406.562)" fill="#28314a"/>
        <g id="Group_358" data-name="Group 358" transform="translate(28.09 40.232)">
          <path id="Path_313" data-name="Path 313" d="M353.981,450.026l11.14,30.942H328.915l-10.306-29.145a1.332,1.332,0,0,1,1.215-1.8Z" transform="translate(-318.529 -450.026)" fill="#6bbea0"/>
          <path id="Path_314" data-name="Path 314" d="M350.739,450.026h1.732a2.228,2.228,0,0,1,2.086,1.5l10.5,29.439h-3.183Z" transform="translate(-315.287 -450.026)" fill="#6bbea0"/>
          <path id="Rectangle_157" data-name="Rectangle 157" d="M0,0H36.106a0,0,0,0,1,0,0V2.981a0,0,0,0,1,0,0H2.35A2.35,2.35,0,0,1,0,.631V0A0,0,0,0,1,0,0Z" transform="translate(10.486 30.942)" fill="#6bbea0"/>
          <path id="Path_315" data-name="Path 315" d="M360.86,481.119H383.2a1.467,1.467,0,0,0,1.442-1.49h0a1.467,1.467,0,0,0-1.442-1.49H360.86Z" transform="translate(-314.268 -447.196)" fill="#6bbea0"/>
          <path id="Path_316" data-name="Path 316" d="M343.084,464.269c.686,2.139-.141,4.344-1.846,4.928s-3.641-.677-4.326-2.815.141-4.343,1.846-4.927S342.4,462.132,343.084,464.269Z" transform="translate(-316.703 -448.89)" fill="#e6f0f3"/>
        </g>
        <g id="Group_361" data-name="Group 361" transform="translate(82.34 33.838)">
          <g id="Group_359" data-name="Group 359" transform="translate(0 5.997)">
            <path id="Path_317" data-name="Path 317" d="M411.721,456.817l-8.387,21.766-.185.48a3.191,3.191,0,0,1-2.973,2.069l-23.843-.162a1.826,1.826,0,0,1-.245-3.622l23.586-3.609-3.158,2.549,5.62-22.7a5.041,5.041,0,0,1,6.146-3.763,5.235,5.235,0,0,1,3.64,6.351A5.958,5.958,0,0,1,411.721,456.817Z" transform="translate(-367.136 -449.665)" fill="#efae86"/>
            <path id="Path_318" data-name="Path 318" d="M379.6,474.422l-8.14-.177c-2.012,0-3.643,1.913-3.643,4.273h11.888Z" transform="translate(-367.817 -447.191)" fill="#efae86"/>
          </g>
          <g id="Group_360" data-name="Group 360" transform="translate(31.352)">
            <path id="Path_319" data-name="Path 319" d="M396.3,460.055l13.034,3.35,2.139-12.229a5.889,5.889,0,0,0-4.794-6.9h0a5.7,5.7,0,0,0-6.21,3.84Z" transform="translate(-396.302 -444.216)" fill="#dd4268"/>
          </g>
        </g>
        <path id="Path_320" data-name="Path 320" d="M382.969,562.385l-3.041,3.1-6.834,1.719a2.167,2.167,0,0,0-1.513,1.417l-.348,1.022a.768.768,0,0,0,.72,1.027l22-.553a1.27,1.27,0,0,0,1.213-1.389l-1.735-6.44-3.323.821a3.964,3.964,0,0,1-3.342-.358l-1.182-.711A2.115,2.115,0,0,0,382.969,562.385Z" transform="translate(-285.138 -398.55)" fill="#17232d"/>
        <path id="Path_321" data-name="Path 321" d="M354.283,558.327l-3.041,3.1-6.834,1.719a2.168,2.168,0,0,0-1.515,1.416l-.347,1.023a.767.767,0,0,0,.72,1.026l19.912-.434a1.27,1.27,0,0,0,1.213-1.389l-.517-6.58-2.454.843a3.962,3.962,0,0,1-3.34-.358l-1.182-.712A2.116,2.116,0,0,0,354.283,558.327Z" transform="translate(-288.025 -398.958)" fill="#17232d"/>
      </g>
      <g id="Group_366" data-name="Group 366" transform="translate(224.72 490.994)">
        <rect id="Rectangle_158" data-name="Rectangle 158" width="62.754" height="23.475" rx="3.086" fill="#f1aa49"/>
        <g id="Group_365" data-name="Group 365" transform="translate(6.831 5.001)">
          <path id="Rectangle_159" data-name="Rectangle 159" d="M.974,0H12.756a.973.973,0,0,1,.973.973V12.5a.974.974,0,0,1-.974.974H.973A.973.973,0,0,1,0,12.5V.974A.974.974,0,0,1,.974,0Z" fill="#fff"/>
          <g id="Group_364" data-name="Group 364" transform="translate(17.365 0.89)">
            <path id="Path_322" data-name="Path 322" d="M277.5,476.111H247.637a.95.95,0,0,1-.934-.965h0a.951.951,0,0,1,.934-.965H277.5a.95.95,0,0,1,.934.965h0A.95.95,0,0,1,277.5,476.111Z" transform="translate(-246.703 -474.18)" fill="#fff"/>
            <g id="Group_363" data-name="Group 363" transform="translate(0 4.881)">
              <rect id="Rectangle_160" data-name="Rectangle 160" width="12.291" height="1.932" rx="0.84" fill="#fff"/>
              <rect id="Rectangle_161" data-name="Rectangle 161" width="14.327" height="1.932" rx="0.84" transform="translate(17.4)" fill="#fff"/>
            </g>
            <path id="Path_323" data-name="Path 323" d="M270.021,484.982H247.637a.951.951,0,0,1-.934-.966h0a.951.951,0,0,1,.934-.965h22.384a.95.95,0,0,1,.934.965h0A.951.951,0,0,1,270.021,484.982Z" transform="translate(-246.703 -473.287)" fill="#fff"/>
          </g>
        </g>
      </g>
      <g id="Group_367" data-name="Group 367" transform="translate(323.677 479.834)">
        <path id="Path_324" data-name="Path 324" d="M311.475,473.22s9.211.034,7.3-9.765C318.772,463.455,309.109,464.442,311.475,473.22Z" transform="translate(-302.667 -459.421)" fill="#448c62"/>
        <path id="Path_325" data-name="Path 325" d="M311.091,472.753s-9.326.034-7.388-9.886C303.7,462.867,313.487,463.867,311.091,472.753Z" transform="translate(-303.438 -459.48)" fill="#448c62"/>
        <path id="Path_326" data-name="Path 326" d="M311.027,473.1s-6.792-7.073,1.217-13.307C312.244,459.79,318.68,468.015,311.027,473.1Z" transform="translate(-302.945 -459.79)" fill="#29543a"/>
        <path id="Path_327" data-name="Path 327" d="M318.914,471.126h-14.9l2.373,10.693h9.967Z" transform="translate(-303.381 -458.649)" fill="#e2571b"/>
      </g>
      <line id="Line_4" data-name="Line 4" y2="75.422" transform="translate(373.883 516.701)" fill="none" stroke="#28314a" stroke-miterlimit="10" stroke-width="2"/>
    </g>
  </g>
</svg>
