<svg xmlns="http://www.w3.org/2000/svg" viewBox="0 0 409.44 415.48"><defs><style>.cls-1{fill:#fff;}.cls-2{fill:#f3f3f4;}.cls-3{fill:#d6dfee;}.cls-4{fill:#dfe9ee;}.cls-5{fill:#ffe082;}.cls-6{fill:#f0ba60;}.cls-7{fill:#eda12b;}.cls-8{fill:#c4cae6;}.cls-9{fill:#3a405c;}.cls-10,.cls-23{fill:none;stroke:#3a405c;stroke-miterlimit:10;}.cls-10{stroke-width:2.5px;}.cls-11{fill:#f1bd99;}.cls-12{fill:#e8ae88;}.cls-13{fill:#e75b7b;}.cls-14{fill:#2c3048;}.cls-15{fill:#22283b;}.cls-16{fill:#edb48c;}.cls-17{fill:#77c9b0;}.cls-18{fill:#ebf3f5;}.cls-19{fill:#202f3b;}.cls-20{fill:#4a9d76;}.cls-21{fill:#2f674c;}.cls-22{fill:#e86f2a;}.cls-23{stroke-width:2px;}.cls-24{fill:#ee6f2d;}.cls-25{fill:#2d2d2c;}.cls-26{fill:#de9e26;}.cls-27{fill:#be812b;}.cls-28{fill:#efaf87;}.cls-29{fill:#33334d;}.cls-30{fill:#faae83;}.cls-31{fill:#f58a69;}</style></defs><title>Asset 1</title><g id="Layer_2" data-name="Layer 2"><g id="Layer_1-2" data-name="Layer 1"><rect class="cls-1" y="1.05" width="409.44" height="254.41" rx="12.5" ry="12.5"/><path class="cls-2" d="M12.5,0H396.94a12.5,12.5,0,0,1,12.5,12.5V32.43a0,0,0,0,1,0,0H0a0,0,0,0,1,0,0V12.5A12.5,12.5,0,0,1,12.5,0Z"/><circle class="cls-3" cx="20.04" cy="18.29" r="3.86"/><circle class="cls-3" cx="31.79" cy="18.29" r="3.86"/><circle class="cls-3" cx="42.5" cy="18.29" r="3.86"/><rect class="cls-4" x="23.9" y="109.64" width="347.19" height="25.77" rx="5.53" ry="5.53"/><rect class="cls-4" x="23.9" y="147.44" width="347.19" height="25.77" rx="5.53" ry="5.53"/><rect class="cls-4" x="123.87" y="190.41" width="147.26" height="26.54" rx="5.53" ry="5.53"/><rect class="cls-1" x="182.31" y="44.02" width="44.83" height="55.28"/><path class="cls-5" d="M220.42,81H189c0-6.9,7-12.5,15.7-12.5S220.42,74.08,220.42,81Z"/><circle class="cls-5" cx="204.72" cy="59.27" r="7.66"/><rect class="cls-5" x="189.02" y="86.17" width="31.4" height="5.83"/><path class="cls-6" d="M277.33,243.67v30a4.62,4.62,0,0,0,4.54,4.69h62a4.62,4.62,0,0,0,4.54-4.69v-30a4.61,4.61,0,0,0-4.54-4.68h-62A4.61,4.61,0,0,0,277.33,243.67Z"/><path class="cls-7" d="M277.33,243.67v2.6h71v-2.6a4.61,4.61,0,0,0-4.54-4.68h-62A4.61,4.61,0,0,0,277.33,243.67Z"/><ellipse class="cls-1" cx="344.37" cy="242.98" rx="0.95" ry="0.98"/><path class="cls-1" d="M339.61,243a1,1,0,1,0,.95-1A1,1,0,0,0,339.61,243Z"/><path class="cls-1" d="M335.8,243a1,1,0,1,0,.95-1A1,1,0,0,0,335.8,243Z"/><rect class="cls-1" x="323.61" y="250.62" width="15.95" height="13.67" rx="0.83" ry="0.83" transform="translate(663.17 514.92) rotate(-180)"/><path class="cls-1" d="M287.15,270.69h52.41a1,1,0,0,0,1-1h0a1,1,0,0,0-1-1H287.15a1,1,0,0,0-1,1h0A1,1,0,0,0,287.15,270.69Z"/><path class="cls-1" d="M287.15,262.87H319a1,1,0,0,0,1-1h0a1,1,0,0,0-1-1h-31.8a1,1,0,0,0-1,1h0A1,1,0,0,0,287.15,262.87Z"/><path class="cls-1" d="M299.26,255.52H319a1,1,0,0,0,1-1h0a1,1,0,0,0-1-1H299.26a1,1,0,0,0-1,1h0A1,1,0,0,0,299.26,255.52Z"/><path class="cls-6" d="M214.1,214.6h29.49a3,3,0,0,1,2.91,3v16.47a3,3,0,0,1-2.91,3H242v7.54l-7.29-7.54H214.1a3,3,0,0,1-2.92-3V217.6A3,3,0,0,1,214.1,214.6Z"/><path class="cls-1" d="M239.45,230.73h-7a1,1,0,0,0-1,1h0a1,1,0,0,0,1,1h7a1,1,0,0,0,1-1h0A1,1,0,0,0,239.45,230.73Z"/><path class="cls-1" d="M239.45,225.7H226.63a1,1,0,0,0-1,1h0a1,1,0,0,0,1,1h12.82a1,1,0,0,0,1-1h0A1,1,0,0,0,239.45,225.7Z"/><path class="cls-1" d="M239.45,220.81h-22a1,1,0,0,0-1,1h0a1,1,0,0,0,1,1h22a1,1,0,0,0,1-1h0A1,1,0,0,0,239.45,220.81Z"/><path class="cls-8" d="M232.38,355.88H198.23a13.61,13.61,0,0,1-13.36-12.37l-4.92-53h34.13l.7,30.71Z"/><path class="cls-9" d="M232.38,356.43c-8.94.35-17.88.5-26.82.64l-6.71.05c-.54,0-1.16,0-1.78,0a16.06,16.06,0,0,1-1.81-.25,15.22,15.22,0,0,1-3.48-1.19,15,15,0,0,1-8.14-11.52c-.86-9-1.67-17.83-2.39-26.76s-1.46-17.83-2.07-26.75a.77.77,0,0,1,.72-.83.79.79,0,0,1,.82.69c1.05,8.88,2,17.77,2.9,26.66s1.72,17.84,2.62,26.65a12.75,12.75,0,0,0,6.7,9.55,11.89,11.89,0,0,0,2.84,1,10.64,10.64,0,0,0,1.5.23c.5,0,1,.07,1.57.06l6.71.06c8.94.14,17.88.29,26.82.64a.54.54,0,0,1,.52.56A.55.55,0,0,1,232.38,356.43Z"/><line class="cls-10" x1="212.85" y1="356.88" x2="212.85" y2="394.29"/><rect class="cls-9" x="206.4" y="321.83" width="110.08" height="1.77"/><polygon class="cls-11" points="219.38 401.36 218.22 405.69 223.9 407.47 225.68 402.12 219.38 401.36"/><polygon class="cls-11" points="253.73 398.22 253.73 401.69 248.69 401.69 248.13 398.22 253.73 398.22"/><path class="cls-12" d="M215.05,297.68l7.6,19.41.17.43a2.86,2.86,0,0,0,2.67,1.84l21.66-.16a1.61,1.61,0,0,0,1.58-1.65,1.64,1.64,0,0,0-1.36-1.61l-21.43-3.23,2.84,2.28-5.12-20.26a4.55,4.55,0,0,0-5.55-3.36,4.72,4.72,0,0,0-3.25,5.74C214.91,297.29,215,297.5,215.05,297.68Z"/><path class="cls-12" d="M244.8,315.55l7.4-.15a3.59,3.59,0,0,1,3.31,3.81H244.7Z"/><path class="cls-13" d="M227,300l-11.84,3-1.94-10.91a5.26,5.26,0,0,1,4.35-6.15h0a5.18,5.18,0,0,1,5.64,3.43Z"/><path class="cls-14" d="M214.78,321.25l36.48,19.14a9.92,9.92,0,0,1,5.21,9.38l-2.74,48.45h-5.6l-7.56-51.84-28.4-20.62Z"/><path class="cls-15" d="M221.22,255.08s-10.14-3.56-15.47,6.36a10,10,0,0,1-1.06,1.64c-1.08,1.32-3.34,3.75-5.83,4.54-9.87,3.13-16.11,22.41,3.53,24.13,24.58,2.15,31.56-2.86,28.05-13-2.51-7.22-.27-12.35-.27-12.35Z"/><path class="cls-13" d="M213.12,281l5.25,2.42a8.87,8.87,0,0,1,5.09,8.18c-.09,7.12-1.65,24.79-7.47,31.56H198.25c-2.74-12.52-1.16-31.77-1.16-31.77a9,9,0,0,1,7.72-9.35Z"/><path class="cls-16" d="M212.63,286.8h0a3.41,3.41,0,0,0,3.76-3l1.45-11.65-6.75-.81-1.43,11.57A3.48,3.48,0,0,0,212.63,286.8Z"/><path class="cls-11" d="M216.64,280.59l3.4.46a6.67,6.67,0,0,0,7.43-5.91L229,263.37l-16.56-2.23-1.48,11.77A6.8,6.8,0,0,0,216.64,280.59Z"/><path class="cls-15" d="M210.59,267.39l1.41,3s1.88,1.68,2.41-2.55c.45-3.59,3-3,3-3s8.63,6.74,13.69,2.11c4-3.65-2.46-10.33-9.85-11.94l-9.71,4.38Z"/><path class="cls-11" d="M213,270.54a2.77,2.77,0,0,1-3,2.47,2.82,2.82,0,0,1-2.39-3.15,2.76,2.76,0,0,1,3.05-2.47A2.82,2.82,0,0,1,213,270.54Z"/><path class="cls-1" d="M210.75,271.52a.49.49,0,1,1-1-.12.49.49,0,0,1,.55-.44A.5.5,0,0,1,210.75,271.52Z"/><path class="cls-1" d="M224.74,275.89l-4.65-1s-.22,2.08,2.32,2.46A1.9,1.9,0,0,0,224.74,275.89Z"/><path class="cls-9" d="M198.25,323.12H216l28.38,17.72a8.18,8.18,0,0,1,3.1,10.12l-21.79,51.16-6.29-.76L231.09,352c-9.82-.42-28.07-2-32.84-7.45C190.18,335.24,198.25,323.12,198.25,323.12Z"/><path class="cls-17" d="M258.75,291l-10.12,28.12h32.89l9.37-26.48a1.22,1.22,0,0,0-1.11-1.64Z"/><path class="cls-17" d="M258.75,291h-1.57a2,2,0,0,0-1.9,1.37l-9.54,26.75h2.89Z"/><path class="cls-17" d="M251,319.13h30.45a0,0,0,0,1,0,0v2.71a0,0,0,0,1,0,0h-32.8a0,0,0,0,1,0,0v-.36A2.35,2.35,0,0,1,251,319.13Z" transform="translate(530.06 640.96) rotate(-180)"/><path class="cls-17" d="M248.63,321.83h-20.3a1.33,1.33,0,0,1-1.31-1.35h0a1.33,1.33,0,0,1,1.31-1.35h20.3Z"/><path class="cls-18" d="M267,305c-.62,1.94.13,3.94,1.68,4.47s3.31-.61,3.93-2.55-.13-4-1.68-4.48S267.61,303.05,267,305Z"/><path class="cls-11" d="M201.16,297.15l7.62,19.78.17.43a2.88,2.88,0,0,0,2.7,1.88l21.67-.14a1.66,1.66,0,0,0,.22-3.3l-21.43-3.27,2.87,2.31-5.11-20.62a4.58,4.58,0,0,0-5.58-3.42,4.76,4.76,0,0,0-3.31,5.77C201,296.76,201.1,297,201.16,297.15Z"/><path class="cls-11" d="M231,315.39l7.39-.16a3.63,3.63,0,0,1,3.31,3.89h-10.8Z"/><path class="cls-13" d="M213.19,299.59l-11.85,3.05-1.94-11.11a5.35,5.35,0,0,1,4.36-6.27h0a5.19,5.19,0,0,1,5.64,3.49Z"/><path class="cls-19" d="M227.6,403.31l2.76,2.82,6.21,1.57a1.94,1.94,0,0,1,1.37,1.28l.32.93a.69.69,0,0,1-.65.93l-20-.5a1.14,1.14,0,0,1-1.1-1.26l1.57-5.85,3,.75a3.65,3.65,0,0,0,3-.33l1.07-.65A1.94,1.94,0,0,1,227.6,403.31Z"/><path class="cls-19" d="M256.28,399.26l2.77,2.81,6.21,1.57a2,2,0,0,1,1.37,1.28l.32.93a.71.71,0,0,1-.66.94l-18.09-.4a1.15,1.15,0,0,1-1.1-1.26l.47-6,2.23.77a3.59,3.59,0,0,0,3-.33l1.08-.64A1.9,1.9,0,0,1,256.28,399.26Z"/><rect class="cls-6" x="327.75" y="309.82" width="57.02" height="21.33" rx="3.09" ry="3.09" transform="translate(712.52 640.96) rotate(180)"/><rect class="cls-1" x="366.09" y="314.36" width="12.47" height="12.24" rx="0.97" ry="0.97" transform="translate(744.65 640.96) rotate(180)"/><path class="cls-1" d="M334.81,316.92h27.13a.86.86,0,0,0,.85-.87h0a.86.86,0,0,0-.85-.88H334.81a.86.86,0,0,0-.85.88h0A.86.86,0,0,0,334.81,316.92Z"/><rect class="cls-1" x="351.62" y="319.6" width="11.17" height="1.76" rx="0.84" ry="0.84" transform="translate(714.4 640.96) rotate(-180)"/><rect class="cls-1" x="333.96" y="319.6" width="13.02" height="1.76" rx="0.84" ry="0.84" transform="translate(680.94 640.96) rotate(-180)"/><path class="cls-1" d="M341.6,325.79h20.34a.86.86,0,0,0,.85-.87h0a.86.86,0,0,0-.85-.88H341.6a.86.86,0,0,0-.85.88h0A.86.86,0,0,0,341.6,325.79Z"/><path class="cls-20" d="M298.05,313.31s-8.37,0-6.63-8.87C291.42,304.44,300.2,305.34,298.05,313.31Z"/><path class="cls-20" d="M299.1,312.84s8.47,0,6.71-9C305.81,303.86,296.92,304.76,299.1,312.84Z"/><path class="cls-21" d="M298.71,312.87s6.17-6.43-1.11-12.09C297.6,300.78,291.75,308.25,298.71,312.87Z"/><polygon class="cls-22" points="291.94 312.12 305.48 312.12 303.32 321.83 294.27 321.83 291.94 312.12"/><line class="cls-23" x1="265.03" y1="323.6" x2="265.03" y2="392.13"/><path class="cls-24" d="M174.94,274.18c.3-3.3-12.39-34-16.71-36.12l-.15-.06c.14.56.39,20,2,24.12,3,7.46,4.55,9.15,6.61,13.2-.18,1.57-1.09,4.43-1.15,5,0,.06,1-3.79,0,.17-1.53,4.36-4.69,16.73-4.52,16.71l3.8,7.33S175.71,279.24,174.94,274.18Z"/><path class="cls-25" d="M165.3,354.78l-4,48.24h-7c-1.63-18.8-4.26-35.28-1.3-48.24-3-14.62-5.2-47.81-5.2-47.81a108.23,108.23,0,0,1,14-4.7C164.61,318.5,165.3,354.78,165.3,354.78Z"/><path class="cls-26" d="M177.65,414.39h-23a2.14,2.14,0,0,1-2.11-1.85,1.7,1.7,0,0,1,0-.45l.93-12.09a13.78,13.78,0,0,1,2.3-.76,2.34,2.34,0,0,0,1.71-1.54c0-.06,0-.12,0-.18.53-2.33,3.88-3.07,4.5-.79.08.29.15.58.21.85,0,.07,0,.14.05.21.1.48.17.93.22,1.33v0a12.76,12.76,0,0,1,.12,1.65l.88,1.14c.15.18.29.37.43.55l.88,1.15.4.5c.32.4.64.78.95,1.13.14.16.28.32.43.47a6.63,6.63,0,0,0,3.8,2.3c2.49.34,6.57.61,8.54,4.28a1.6,1.6,0,0,1,.1.23A1.43,1.43,0,0,1,177.65,414.39Z"/><path class="cls-27" d="M177.65,414.39h-23a2.14,2.14,0,0,1-2.11-1.85H179A1.43,1.43,0,0,1,177.65,414.39Z"/><path class="cls-1" d="M163.9,402.48a4,4,0,0,1-1.91,1.31l-.61.22-.2-.6.59-.22c1.26-.51,1.61-1,1.7-1.26C163.62,402.11,163.76,402.3,163.9,402.48Z"/><circle class="cls-1" cx="161.28" cy="403.71" r="0.71"/><path class="cls-1" d="M165.18,404.13a4.32,4.32,0,0,1-1.57,1c-.22.1-.47.19-.73.28l-.2-.61.67-.24a3.69,3.69,0,0,0,1.43-.92Z"/><path class="cls-1" d="M163.61,405.1a.72.72,0,1,1-.72-.72A.71.71,0,0,1,163.61,405.1Z"/><path class="cls-1" d="M166.56,405.73a4.54,4.54,0,0,1-1.53.95,6.81,6.81,0,0,1-.74.28l-.19-.61a6.34,6.34,0,0,0,.67-.25,4,4,0,0,0,1.36-.84C166.27,405.42,166.41,405.58,166.56,405.73Z"/><path class="cls-1" d="M165,406.66a.71.71,0,1,1-.71-.72A.71.71,0,0,1,165,406.66Z"/><path class="cls-1" d="M162.47,399.12a15.59,15.59,0,0,0-2.05.11v-1.15a5.08,5.08,0,0,1,1.82-.29C162.35,398.27,162.42,398.72,162.47,399.12Z"/><path class="cls-25" d="M144,307s-.18,19.15-2.9,47.81c-1.77,15.61-3.74,35.19-5.93,48.24H128.1l-1-48.24s-1.61-29.69,1.89-50.15Z"/><path class="cls-26" d="M141.32,412.78c-.2,4.05-12.88,2.66-14.91,1.44a2.88,2.88,0,0,1-1.17-2.47,19.34,19.34,0,0,1,1-5.75c.81-2.85.7-2.8,1.26-4.75,0,0-.15-3.18,4-4.39s5.68,6.69,6.39,8.21,3.17,3.3,3.43,6.73A6.37,6.37,0,0,1,141.32,412.78Z"/><path class="cls-1" d="M129.23,403.81l-.33-.51c.16-.1,3.82-2.45,7-1.05l-.24.56C132.78,401.54,129.27,403.79,129.23,403.81Z"/><path class="cls-1" d="M129.59,407.34l-.33-.51c.16-.1,3.82-2.45,7-1.05l-.24.56C133.14,405.07,129.63,407.32,129.59,407.34Z"/><path class="cls-1" d="M129.41,405.58l-.33-.51c.16-.1,3.82-2.45,7-1.05l-.24.55C133,403.3,129.45,405.55,129.41,405.58Z"/><path class="cls-1" d="M129.72,403.65a.69.69,0,0,1-.69.69.69.69,0,1,1,.69-.69Z"/><path class="cls-1" d="M129.75,405.33a.68.68,0,0,1-.68.68.69.69,0,1,1,.68-.68Z"/><path class="cls-1" d="M130.11,407a.67.67,0,0,1-.68.68.68.68,0,0,1-.69-.68.69.69,0,0,1,.69-.69A.68.68,0,0,1,130.11,407Z"/><path class="cls-1" d="M136.84,406a.68.68,0,0,1-.69.68.68.68,0,0,1,0-1.36A.68.68,0,0,1,136.84,406Z"/><path class="cls-1" d="M136.65,404.19a.68.68,0,1,1-.68-.69A.68.68,0,0,1,136.65,404.19Z"/><path class="cls-1" d="M136.47,402.36a.68.68,0,1,1-.68-.68A.67.67,0,0,1,136.47,402.36Z"/><path class="cls-27" d="M141.32,412.78c-.2,4.05-12.88,2.66-14.91,1.44a2.88,2.88,0,0,1-1.17-2.47,15,15,0,0,0,7.19,1.77c4.3.07,7.4-.8,8.88-1.72A6.37,6.37,0,0,1,141.32,412.78Z"/><path class="cls-1" d="M133.28,398.11a6.77,6.77,0,0,0-3.56.71l.18,1.29a14,14,0,0,1,3.82-.58A3,3,0,0,0,133.28,398.11Z"/><path class="cls-25" d="M130,299.62a68.23,68.23,0,0,0-2.37,16s11.68,5.11,26.55-.54a12,12,0,0,0,7-15.2,1.43,1.43,0,0,0-.08-.22S142.08,298.84,130,299.62Z"/><path class="cls-24" d="M165.55,304.35a62,62,0,0,1-7.61,3c-.7.22-1.41.42-2.12.61a47.06,47.06,0,0,1-11.55,1.69,34.92,34.92,0,0,1-19.11-5.12l4.12-24.5-6.82-39.85,10.2-3.49.55-.19,1-.34.42-.15.86-.29,1.82-.63,10.8,1.45.65.08,1.1.15.62.09,7.72,1Z"/><path class="cls-1" d="M155.57,308.07A46.56,46.56,0,0,1,144,309.75c.17-1.1.31-2.23.42-3.41q.09-.87.15-1.77c.08-1.18.14-2.39.16-3.63q0-.87,0-1.77c0-1.18,0-2.38,0-3.6,0-.59,0-1.18-.06-1.77-.05-1.19-.12-2.39-.2-3.6,0-.58-.09-1.17-.14-1.76-.09-1.19-.2-2.38-.33-3.58l-.18-1.76c-.14-1.19-.28-2.39-.44-3.58-.07-.59-.15-1.18-.23-1.76-.16-1.2-.34-2.39-.52-3.58-.09-.59-.18-1.18-.28-1.76-.19-1.2-.39-2.4-.59-3.58-.1-.59-.21-1.18-.31-1.77-.22-1.2-.44-2.4-.67-3.58-.11-.59-.23-1.18-.34-1.76-.24-1.22-.49-2.42-.73-3.59-.13-.6-.25-1.19-.38-1.77-.26-1.23-.52-2.43-.79-3.6-.13-.59-.26-1.19-.4-1.77-.29-1.24-.57-2.45-.85-3.6-.14-.61-.29-1.2-.43-1.78-.31-1.28-.62-2.49-.91-3.62-.16-.62-.31-1.21-.46-1.78-.41-1.58-.79-2.95-1.11-4.1l.86-.3,1.82-.62,10.8,1.44.65.09.57,3.06c.1.58.21,1.16.31,1.74.2,1.17.4,2.33.59,3.5.1.58.2,1.16.29,1.74.19,1.17.37,2.33.55,3.49.08.59.17,1.17.26,1.75.17,1.17.34,2.33.5,3.49l.24,1.75c.15,1.17.31,2.34.45,3.5.08.59.15,1.17.22,1.76.14,1.17.28,2.34.41,3.49.07.59.14,1.18.2,1.76.13,1.19.26,2.35.38,3.51l.18,1.76q.18,1.79.33,3.51c.06.6.11,1.19.16,1.77.11,1.2.21,2.37.3,3.52,0,.6.1,1.19.14,1.78.09,1.2.18,2.37.26,3.52l.12,1.78q.12,1.83.21,3.54c0,.6.07,1.2.1,1.78.06,1.24.11,2.42.16,3.55,0,.61,0,1.21.06,1.79,0,1.28.07,2.47.09,3.56,0,.64,0,1.24,0,1.81C155.62,306.16,155.6,307.21,155.57,308.07Z"/><path class="cls-28" d="M149.4,241.53a72.78,72.78,0,0,1-9.4.55c-1.3,0-2.64,0-4-.08-.16-.62-.31-1.21-.46-1.78a82,82,0,0,0,13.59-.43C149.19,240.37,149.3,241,149.4,241.53Z"/><path class="cls-28" d="M150.28,246.77a74.13,74.13,0,0,1-10.39.66l-2.59,0c-.14-.61-.29-1.2-.43-1.78A79.22,79.22,0,0,0,150,245C150.09,245.61,150.19,246.19,150.28,246.77Z"/><path class="cls-28" d="M151.09,252a74.1,74.1,0,0,1-11.33.77h-1.21c-.13-.59-.26-1.19-.4-1.77a75,75,0,0,0,12.68-.74C150.91,250.85,151,251.43,151.09,252Z"/><path class="cls-28" d="M151.83,257.25a75.09,75.09,0,0,1-12.11.89c-.13-.6-.25-1.19-.38-1.77a73.15,73.15,0,0,0,12.25-.87Z"/><path class="cls-28" d="M152.5,262.51a73,73,0,0,1-11.71,1c-.11-.59-.23-1.18-.34-1.76a71.77,71.77,0,0,0,11.83-1C152.36,261.34,152.43,261.92,152.5,262.51Z"/><path class="cls-28" d="M153.11,267.76a71.39,71.39,0,0,1-11.34,1.08c-.1-.59-.21-1.18-.31-1.77A68.77,68.77,0,0,0,152.91,266C153,266.59,153.05,267.18,153.11,267.76Z"/><path class="cls-28" d="M153.67,273a70.74,70.74,0,0,1-11,1.15c-.09-.59-.18-1.18-.28-1.76a69,69,0,0,0,11.13-1.15Z"/><path class="cls-28" d="M154.16,278.31a69.42,69.42,0,0,1-10.77,1.21c-.07-.59-.15-1.18-.23-1.76A68.41,68.41,0,0,0,154,276.54C154.06,277.14,154.11,277.73,154.16,278.31Z"/><path class="cls-28" d="M154.6,283.61A70.68,70.68,0,0,1,144,284.86l-.18-1.76a69.18,69.18,0,0,0,10.63-1.27C154.51,282.43,154.56,283,154.6,283.61Z"/><path class="cls-28" d="M155,288.91a69.57,69.57,0,0,1-10.5,1.29c0-.58-.09-1.17-.14-1.76a67.65,67.65,0,0,0,10.52-1.31Z"/><path class="cls-28" d="M155.29,294.23a72.39,72.39,0,0,1-10.55,1.34c0-.59,0-1.18-.06-1.77a69.7,69.7,0,0,0,10.51-1.35C155.23,293.05,155.26,293.65,155.29,294.23Z"/><path class="cls-28" d="M155.51,299.57a73.19,73.19,0,0,1-10.75,1.37q0-.87,0-1.77a70.08,70.08,0,0,0,10.66-1.39C155.47,298.39,155.49,299,155.51,299.57Z"/><path class="cls-28" d="M155.62,304.94a75.52,75.52,0,0,1-11.17,1.4q.09-.87.15-1.77a72.23,72.23,0,0,0,11-1.44C155.61,303.77,155.62,304.37,155.62,304.94Z"/><path class="cls-29" d="M159.38,206.16s2.74,1.81,1.76,6.7-2.87,5.43-2.87,5.43S155.4,207.44,159.38,206.16Z"/><path class="cls-30" d="M146.81,229.05l-.35,6.2-.16,2.84c-3.57,2.64-9.37-1-9.37-1l-.62-9.19c1.65-1.11,5.9-.18,8.46.53C146,228.77,146.81,229.05,146.81,229.05Z"/><path class="cls-31" d="M146.81,229.05l-.35,6.2c-4.19-1-7.7-6.77-7.7-6.77l6,0C146,228.77,146.81,229.05,146.81,229.05Z"/><path class="cls-29" d="M158.83,208.66s3.72-.36,1.12-6.38c-2.68-4.22-6-4-13.54-4.11-11.48,1.59-15.2,5.66-14.91,11.93s.23,14.68,3.07,17.82,4.78-1.3,6.25-5.22S151.37,206.77,158.83,208.66Z"/><path class="cls-30" d="M159.44,214c0,.21,0,.43,0,.65A97.21,97.21,0,0,1,158,227.11a7.35,7.35,0,0,1-8.7,6c-4.89-1-10.92-2.49-13.67-4.3a3,3,0,0,1-1.48-1.73,41.4,41.4,0,0,1-.44-5.4c-.2-6.31.27-14.19.27-14.19,5.87-7.3,22.26-4.45,24.75.89A14.29,14.29,0,0,1,159.44,214Z"/><path class="cls-29" d="M133.65,215.87s2.62-1.71,4.82,1.33h1.72a16.41,16.41,0,0,1,.73-5.43c.83-1.91,4.12-1.86,4.61-4.11,0,0,7.75,3.08,13.3,1s-11.1-11.34-19.13-6.83S132.4,209.87,133.65,215.87Z"/><path class="cls-29" d="M135.6,228.78a3,3,0,0,1-1.48-1.73,41.4,41.4,0,0,1-.44-5.4l4.32,3S138.06,227.7,135.6,228.78Z"/><path class="cls-30" d="M138.47,217.2s-2.62-3.18-4.82-1.33c-2.42,2-.57,8.91,4.35,8.76Z"/><path class="cls-31" d="M138.12,223.13a.42.42,0,0,1-.42-.38c-.41-3.48-2.47-4-2.56-4a.44.44,0,0,1-.32-.52.43.43,0,0,1,.51-.33c.12,0,2.75.66,3.23,4.79a.44.44,0,0,1-.39.48Z"/><path class="cls-31" d="M135.36,220.92a.41.41,0,0,1-.29-.11.43.43,0,0,1,0-.6,2.42,2.42,0,0,1,2.31-.67.43.43,0,0,1,.33.51.42.42,0,0,1-.52.33,1.62,1.62,0,0,0-1.48.4A.4.4,0,0,1,135.36,220.92Z"/><path class="cls-30" d="M129.58,306.89a5,5,0,0,1,2.51,1.73s0,7.12-3.59,10.23c0,0-1.76-4.29-3.58-8.39Z"/><path class="cls-24" d="M122.21,240.29s-7.16,22.38-7.79,33.89c0,0,0,21.52,10.5,36.28l4.66-3.57s-5.88-21.42-5.88-29.77c0,0,6-15.51,6.94-21.62C130.64,255.5,126.63,240.29,122.21,240.29Z"/></g></g></svg>