<svg xmlns="http://www.w3.org/2000/svg" width="563" height="339.375" viewBox="0 0 563 339.375">
  <g id="Group_417" data-name="Group 417" transform="translate(-69.365 -163.821)">
    <path id="Path_330" data-name="Path 330" d="M595.2,403.372c-7.605-27.282,16.57-28.334,17.1-63.487.218-14.377-7.659-29.02-26.61-35.736-9.313-3.3-18.6-5.569-26.883-10.818-18.884-11.96-18.544-34.719-23.7-54.119-11.314-42.613-54.857-76.465-98.932-75.364-31.774.793-60.5,1.767-89.467,28.737-19.82,18.453-32.7,41.159-51.1,60.184-19.487,20.147-43.233,29.812-69.9,36.285-25.217,6.121-52.65,13.4-71.951,31.761-18.138,17.251-15.494,35.293-7.717,56.473,8.576,23.355-10.02,39.248-29.411,48.343-16.325,7.657-38.058,6.991-45.638,25.31-8.219,19.862,16.193,20.2,38.893,20.2s316.607-1.746,398.753.684c22.11.654,92.652,6.675,102.631-20.886C618.062,432.181,600.508,422.422,595.2,403.372Z" transform="translate(0)" fill="#b7e5fb" opacity="0.35"/>
    <g id="Group_377" data-name="Group 377" transform="translate(534.6 353.876)">
      <path id="Path_331" data-name="Path 331" d="M582.384,351.4c-16.759,39-49.045,70.833-87.75,88.092" transform="translate(-494.634 -336.247)" fill="none" stroke="#b7e5fb" stroke-miterlimit="10" stroke-width="1.056"/>
      <g id="Group_376" data-name="Group 376" transform="translate(11.528)">
        <path id="Path_332" data-name="Path 332" d="M570.349,363.076a32.11,32.11,0,0,0,11.057-19.429c.294-1.842.353-3.942-.885-5.338a2.089,2.089,0,0,0-1.3-.753,2.679,2.679,0,0,0-2.094,1.139c-2.911,3.271-3.922,7.8-4.421,12.146s-1.452,7.542-2.355,12.234" transform="translate(-499.047 -337.549)" fill="#b7e5fb"/>
        <path id="Path_333" data-name="Path 333" d="M563.431,375.35a32.122,32.122,0,0,0,2.445-22.221c-.462-1.808-1.239-3.759-2.93-4.55a2.1,2.1,0,0,0-1.493-.175,2.681,2.681,0,0,0-1.471,1.876c-1.375,4.158-.508,8.712.759,12.9s1.658,7.5,2.69,12.165" transform="translate(-500.087 -336.536)" fill="#b7e5fb"/>
        <path id="Path_334" data-name="Path 334" d="M552.522,390.289a32.121,32.121,0,0,0,5.143-21.755c-.236-1.852-.77-3.883-2.351-4.874a2.094,2.094,0,0,0-1.46-.357,2.68,2.68,0,0,0-1.69,1.683c-1.873,3.959-1.569,8.584-.824,12.9s.729,7.646,1.183,12.4" transform="translate(-500.888 -335.131)" fill="#b7e5fb"/>
        <path id="Path_335" data-name="Path 335" d="M540.22,403.38a32.109,32.109,0,0,0,5.143-21.755c-.236-1.851-.769-3.883-2.351-4.874a2.092,2.092,0,0,0-1.46-.356,2.676,2.676,0,0,0-1.689,1.681c-1.873,3.959-1.57,8.584-.825,12.9s.729,7.646,1.183,12.4" transform="translate(-502.044 -333.901)" fill="#b7e5fb"/>
        <path id="Path_336" data-name="Path 336" d="M521.643,418.463a32.118,32.118,0,0,0,7.368-21.106c-.043-1.866-.363-3.942-1.833-5.091a2.1,2.1,0,0,0-1.416-.505,2.678,2.678,0,0,0-1.854,1.5c-2.273,3.744-2.451,8.376-2.156,12.745s-.067,7.681-.108,12.459" transform="translate(-503.624 -332.455)" fill="#b7e5fb"/>
        <path id="Path_337" data-name="Path 337" d="M507.207,428.052a34.284,34.284,0,0,0,8.552-20.045c.161-1.856.107-3.956-1.031-5.276a1.726,1.726,0,0,0-1.159-.675c-.712-.035-1.305.612-1.747,1.259-2.344,3.437-2.988,8.013-3.2,12.386s-.873,7.614-1.416,12.351" transform="translate(-504.981 -331.487)" fill="#b7e5fb"/>
        <path id="Path_338" data-name="Path 338" d="M559.431,379.324a34.8,34.8,0,0,0,23-4.412c1.7-1,3.466-2.355,3.827-4.244a2.057,2.057,0,0,0-.208-1.506,2.668,2.668,0,0,0-2.268-.859c-4.539-.068-8.9,2.168-12.8,4.683s-7.123,3.907-11.555,6.337" transform="translate(-500.073 -334.659)" fill="#b7e5fb"/>
        <path id="Path_339" data-name="Path 339" d="M550.781,390.143a34.793,34.793,0,0,0,23.388,1.206c1.891-.567,3.927-1.459,4.728-3.206a2.05,2.05,0,0,0,.158-1.513,2.663,2.663,0,0,0-2-1.375c-4.391-1.15-9.161-.02-13.543,1.493s-7.849,2.093-12.734,3.4" transform="translate(-500.886 -333.11)" fill="#b7e5fb"/>
        <path id="Path_340" data-name="Path 340" d="M537.861,402.969a34.8,34.8,0,0,0,22.674,5.859c1.967-.176,4.141-.644,5.274-2.2a2.052,2.052,0,0,0,.457-1.451c-.114-.819-.912-1.37-1.68-1.747-4.074-2.005-8.973-1.852-13.569-1.247s-8.111.481-13.156.781" transform="translate(-502.1 -331.512)" fill="#b7e5fb"/>
        <path id="Path_341" data-name="Path 341" d="M519.786,418.595a34.8,34.8,0,0,0,23.409.686c1.878-.609,3.895-1.547,4.656-3.311a2.057,2.057,0,0,0,.125-1.516,2.667,2.667,0,0,0-2.027-1.33c-4.416-1.051-9.16.185-13.507,1.794s-7.8,2.268-12.655,3.678" transform="translate(-503.799 -330.483)" fill="#b7e5fb"/>
        <path id="Path_342" data-name="Path 342" d="M505.172,426.817a34.788,34.788,0,0,0,20.594,11.15c1.952.3,4.174.373,5.648-.86a2.055,2.055,0,0,0,.793-1.3,2.667,2.667,0,0,0-1.211-2.1c-3.47-2.926-8.262-3.958-12.868-4.479s-7.987-1.487-12.956-2.412" transform="translate(-505.172 -329.16)" fill="#b7e5fb"/>
      </g>
    </g>
    <g id="Group_379" data-name="Group 379" transform="translate(211.464 292.166)">
      <path id="Path_343" data-name="Path 343" d="M212.387,295.451c9.8,53.571,47.152,101.336,96.779,123.767" transform="translate(-198.023 -279.796)" fill="none" stroke="#b7e5fb" stroke-miterlimit="10" stroke-width="1.056"/>
      <g id="Group_378" data-name="Group 378">
        <path id="Path_344" data-name="Path 344" d="M215.216,308.007a32.12,32.12,0,0,1-6.447-21.406c.125-1.862.535-3.922,2.053-5.006a2.092,2.092,0,0,1,1.436-.443,2.675,2.675,0,0,1,1.788,1.576c2.108,3.839,2.084,8.475,1.6,12.827s-.267,7.676-.432,12.452" transform="translate(-198.369 -281.141)" fill="#b7e5fb"/>
        <path id="Path_345" data-name="Path 345" d="M219.118,321.4a32.115,32.115,0,0,1,2.571-22.207c.853-1.661,2.046-3.389,3.87-3.782a2.1,2.1,0,0,1,1.494.162,2.682,2.682,0,0,1,1.016,2.157c.412,4.359-1.448,8.606-3.617,12.41s-3.29,6.94-5.335,11.259" transform="translate(-197.477 -279.806)" fill="#b7e5fb"/>
        <path id="Path_346" data-name="Path 346" d="M226.322,338.407a32.117,32.117,0,0,1-.162-22.354c.643-1.751,1.616-3.612,3.378-4.226a2.1,2.1,0,0,1,1.5-.022,2.677,2.677,0,0,1,1.271,2.017c.944,4.276-.384,8.718-2.072,12.759s-2.415,7.29-3.919,11.826" transform="translate(-196.91 -278.271)" fill="#b7e5fb"/>
        <path id="Path_347" data-name="Path 347" d="M235.395,353.913a32.117,32.117,0,0,1-.162-22.354c.643-1.751,1.616-3.613,3.378-4.227a2.09,2.09,0,0,1,1.5-.021,2.679,2.679,0,0,1,1.272,2.016c.943,4.276-.385,8.719-2.073,12.759s-2.415,7.291-3.919,11.827" transform="translate(-196.057 -276.814)" fill="#b7e5fb"/>
        <path id="Path_348" data-name="Path 348" d="M250.1,372.773a32.117,32.117,0,0,1-2.477-22.218c.458-1.808,1.233-3.761,2.923-4.553a2.091,2.091,0,0,1,1.492-.177,2.678,2.678,0,0,1,1.474,1.874c1.382,4.156.521,8.711-.74,12.9s-1.648,7.5-2.673,12.169" transform="translate(-194.801 -275.068)" fill="#b7e5fb"/>
        <path id="Path_349" data-name="Path 349" d="M262.091,385.379a34.286,34.286,0,0,1-3.867-21.447c.258-1.847.778-3.88,2.181-4.914a1.731,1.731,0,0,1,1.28-.4c.7.126,1.136.887,1.422,1.618,1.518,3.874,1.126,8.477.358,12.788s-.847,7.617-1.374,12.357" transform="translate(-193.747 -273.861)" fill="#b7e5fb"/>
        <path id="Path_350" data-name="Path 350" d="M223.48,326.587a34.8,34.8,0,0,1-21.437-9.43c-1.435-1.355-2.853-3.069-2.784-4.989a2.053,2.053,0,0,1,.538-1.423,2.67,2.67,0,0,1,2.4-.331c4.439.946,8.193,4.1,11.429,7.418s6.073,5.4,9.851,8.755" transform="translate(-199.257 -278.401)" fill="#b7e5fb"/>
        <path id="Path_351" data-name="Path 351" d="M229.632,339.049a34.8,34.8,0,0,1-23.068-4.04c-1.718-.974-3.5-2.3-3.895-4.18a2.048,2.048,0,0,1,.184-1.51,2.662,2.662,0,0,1,2.253-.9c4.538-.141,8.935,2.024,12.87,4.475s7.185,3.792,11.656,6.15" transform="translate(-198.942 -276.698)" fill="#b7e5fb"/>
        <path id="Path_352" data-name="Path 352" d="M239.394,354.375a34.789,34.789,0,0,1-23.409.656c-1.878-.61-3.892-1.551-4.653-3.316a2.056,2.056,0,0,1-.121-1.516,2.662,2.662,0,0,1,2.028-1.328c4.417-1.046,9.159.2,13.5,1.809s7.8,2.278,12.651,3.694" transform="translate(-198.142 -274.812)" fill="#b7e5fb"/>
        <path id="Path_353" data-name="Path 353" d="M253.494,373.7a34.793,34.793,0,0,1-22.971-4.552c-1.7-1.012-3.452-2.376-3.8-4.265a2.049,2.049,0,0,1,.217-1.505,2.665,2.665,0,0,1,2.272-.846c4.54-.04,8.888,2.222,12.767,4.76s7.1,3.95,11.516,6.409" transform="translate(-196.68 -273.492)" fill="#b7e5fb"/>
        <path id="Path_354" data-name="Path 354" d="M265.928,384.577a34.791,34.791,0,0,1-22.561,6.278c-1.97-.141-4.152-.569-5.315-2.1a2.051,2.051,0,0,1-.484-1.443c.1-.82.887-1.385,1.649-1.778,4.036-2.079,8.937-2.016,13.543-1.5s8.117.331,13.167.537" transform="translate(-195.657 -271.499)" fill="#b7e5fb"/>
      </g>
    </g>
    <g id="Group_381" data-name="Group 381" transform="translate(113.779 363.617)">
      <path id="Path_355" data-name="Path 355" d="M124.082,363.843c54.4-2.481,109.339,23.184,142.345,66.5" transform="translate(-108.637 -344.834)" fill="none" stroke="#b7e5fb" stroke-miterlimit="10" stroke-width="1.056"/>
      <g id="Group_380" data-name="Group 380">
        <path id="Path_356" data-name="Path 356" d="M136.891,363.979a32.12,32.12,0,0,0-22.306-1.474c-1.786.539-3.7,1.4-4.417,3.125a2.09,2.09,0,0,0-.109,1.5A2.677,2.677,0,0,0,112,368.518c4.214,1.192,8.726.127,12.859-1.32s7.42-1.984,12.036-3.218" transform="translate(-109.963 -345.07)" fill="#b7e5fb"/>
        <path id="Path_357" data-name="Path 357" d="M150.732,364.985a32.118,32.118,0,0,0-21.062,7.494c-1.425,1.2-2.842,2.755-2.815,4.621a2.086,2.086,0,0,0,.493,1.42,2.682,2.682,0,0,0,2.33.505c4.341-.578,8.06-3.344,11.28-6.312s6.025-4.764,9.774-7.728" transform="translate(-108.376 -344.712)" fill="#b7e5fb"/>
        <path id="Path_358" data-name="Path 358" d="M168.959,368.125a32.119,32.119,0,0,0-21.821,4.863c-1.562,1.021-3.157,2.387-3.359,4.242a2.092,2.092,0,0,0,.316,1.469,2.678,2.678,0,0,0,2.25.787c4.379-.042,8.409-2.333,11.968-4.886s6.562-3.992,10.644-6.475" transform="translate(-106.787 -344.445)" fill="#b7e5fb"/>
        <path id="Path_359" data-name="Path 359" d="M186.1,373.483a32.116,32.116,0,0,0-21.819,4.864c-1.563,1.021-3.158,2.386-3.36,4.241a2.092,2.092,0,0,0,.316,1.469,2.681,2.681,0,0,0,2.251.787c4.379-.042,8.409-2.332,11.967-4.886s6.562-3.991,10.644-6.475" transform="translate(-105.176 -343.941)" fill="#b7e5fb"/>
        <path id="Path_360" data-name="Path 360" d="M207.811,383.526a32.113,32.113,0,0,0-22.206,2.577c-1.661.852-3.388,2.046-3.781,3.871a2.09,2.09,0,0,0,.163,1.494,2.676,2.676,0,0,0,2.157,1.015c4.359.412,8.605-1.45,12.408-3.62s6.94-3.29,11.258-5.338" transform="translate(-103.216 -343.056)" fill="#b7e5fb"/>
        <path id="Path_361" data-name="Path 361" d="M222.811,392.339a34.279,34.279,0,0,0-21.768,1.049c-1.742.666-3.607,1.63-4.3,3.229a1.732,1.732,0,0,0-.1,1.337c.28.656,1.12.908,1.9,1.023,4.116.609,8.514-.807,12.541-2.524s7.232-2.536,11.732-4.114" transform="translate(-101.826 -342.263)" fill="#b7e5fb"/>
        <path id="Path_362" data-name="Path 362" d="M156.884,367.692a34.8,34.8,0,0,0-14-18.77c-1.644-1.094-3.631-2.092-5.487-1.592a2.048,2.048,0,0,0-1.265.845,2.664,2.664,0,0,0,.216,2.414c1.92,4.113,5.835,7.063,9.8,9.471s6.623,4.705,10.744,7.633" transform="translate(-107.525 -346.383)" fill="#b7e5fb"/>
        <path id="Path_363" data-name="Path 363" d="M170.4,370.88a34.807,34.807,0,0,0-9.118-21.571c-1.336-1.455-3.027-2.9-4.949-2.855a2.052,2.052,0,0,0-1.43.517,2.665,2.665,0,0,0-.367,2.4c.882,4.454,3.98,8.252,7.252,11.535s5.308,6.15,8.612,9.977" transform="translate(-105.785 -346.453)" fill="#b7e5fb"/>
        <path id="Path_364" data-name="Path 364" d="M187.495,376.959A34.8,34.8,0,0,0,182.876,354c-1.017-1.692-2.386-3.445-4.277-3.788a2.052,2.052,0,0,0-1.5.222,2.663,2.663,0,0,0-.839,2.274c-.026,4.54,2.248,8.881,4.8,12.754s3.97,7.088,6.441,11.5" transform="translate(-103.733 -346.105)" fill="#b7e5fb"/>
        <path id="Path_365" data-name="Path 365" d="M209.528,386.35a34.786,34.786,0,0,0-9.6-21.362c-1.366-1.425-3.09-2.83-5.01-2.746a2.054,2.054,0,0,0-1.419.55,2.666,2.666,0,0,0-.313,2.4c.981,4.433,4.163,8.161,7.507,11.372s5.444,6.03,8.831,9.782" transform="translate(-102.154 -344.97)" fill="#b7e5fb"/>
        <path id="Path_366" data-name="Path 366" d="M222.814,396.057a34.8,34.8,0,0,0,1.049-23.395c-.58-1.888-1.487-3.919-3.239-4.707a2.051,2.051,0,0,0-1.514-.148,2.663,2.663,0,0,0-1.361,2.005c-1.12,4.4.042,9.162,1.583,13.534s2.146,7.836,3.482,12.711" transform="translate(-99.876 -344.455)" fill="#b7e5fb"/>
      </g>
    </g>
    <path id="Path_367" data-name="Path 367" d="M294.8,385.751a38.495,38.495,0,0,0-29.746-10.044c-7.271.734-15.2,4.619-16.8,11.748-.763,3.4-.5,7.9-3.71,9.235-3.145,1.306-6.184-1.935-9.414-3.018-5.375-1.8-11.51,4.343-9.7,9.716.825,2.443,2.891,4.571,2.72,7.144-.234,3.5-4.564,5.329-8.032,4.785s-6.532-2.57-9.934-3.435-7.809,0-9,3.3c-1.072,2.959.777,6.936-1.548,9.057a6.338,6.338,0,0,1-3.779,1.224c-29.461,2.8-61.907,8.082-58.611,13.317.9,1.431,3.205.975,4.9.948,62.708-.981,119.669-1.917,182.355.007" transform="translate(6.358 19.896)" fill="#b7e5fb"/>
    <path id="Path_368" data-name="Path 368" d="M435.1,447.941l139.121,1.9c1.556.021,6.461-1.5-1.992-6.948-7.159-4.616-29.787-.463-29.787-.463s5.268-2.111,5.243-4.838-2.091-5.12-4.571-6.251a16.954,16.954,0,0,0-8.025-1.056,51.133,51.133,0,0,0-16.164,3.617,4.688,4.688,0,1,0-5.437-7.611c3.476-4.707,8.849-25.566-7.664-34.759-20.7-11.523-36.417-2.04-39.772,4.894-1.7-6.807-9.512-11.962-14.656-13.238-11.732-2.913-19.373-2.049-30.326,3.065-3.875,1.809-9.063,7.989-11.638,11.4-4.035,5.346-4.664,12.456-4.886,19.15q-.249,7.535-.068,15.078" transform="translate(31.487 20.46)" fill="#c2e8f6"/>
    <g id="Group_395" data-name="Group 395" transform="translate(290.699 172.166)">
      <path id="Path_369" data-name="Path 369" d="M364.591,171.449a10.469,10.469,0,0,0-10.469,10.469v13.418h20.939V181.918A10.47,10.47,0,0,0,364.591,171.449Zm0,16.478a5.874,5.874,0,1,1,5.874-5.874A5.873,5.873,0,0,1,364.591,187.927Z" transform="translate(-263.937 -171.449)" fill="#ef5d3c"/>
      <path id="Path_370" data-name="Path 370" d="M370.465,182.018a5.744,5.744,0,0,0-6.756-5.785,4.308,4.308,0,0,1,2.384-.571,5.874,5.874,0,0,1,5.874,5.874c0,2.942-1.5,4.536-3.768,5.118A6.421,6.421,0,0,0,370.465,182.018ZM357.32,193.962V180.543a10.217,10.217,0,0,1,4.4-8.721,10.466,10.466,0,0,0-7.6,10.061V195.3h20.939v-1.339Z" transform="translate(-263.937 -171.414)" fill="#9f2a35" opacity="0.45"/>
      <rect id="Rectangle_177" data-name="Rectangle 177" width="197.334" height="279.009" rx="9.742" transform="translate(0 24.592)" fill="#1e77be"/>
      <rect id="Rectangle_178" data-name="Rectangle 178" width="174.459" height="257.124" transform="translate(11.438 35.535)" fill="#b7e5fb"/>
      <rect id="Rectangle_179" data-name="Rectangle 179" width="161.042" height="241.413" transform="translate(18.146 43.39)" fill="#fff"/>
      <path id="Rectangle_180" data-name="Rectangle 180" d="M7.023,0h112.9a7.023,7.023,0,0,1,7.023,7.023V17.854a0,0,0,0,1,0,0H0a0,0,0,0,1,0,0V7.023A7.023,7.023,0,0,1,7.023,0Z" transform="translate(35.196 21.844)" fill="#ef5d3c"/>
      <path id="Path_371" data-name="Path 371" d="M308.761,206.626v-7.6a10.217,10.217,0,0,1,3.159-7.393,10.257,10.257,0,0,0-8.064,10.016v7.6H430.8v-2.623Z" transform="translate(-268.661 -169.552)" fill="#ea3518" opacity="0.45"/>
      <g id="Group_394" data-name="Group 394" transform="translate(21.5 47.69)">
        <g id="Group_382" data-name="Group 382">
          <circle id="Ellipse_73" data-name="Ellipse 73" cx="20.7" cy="20.7" r="20.7" transform="translate(8.189 8.189)" fill="#0054a1" opacity="0.25"/>
          <circle id="Ellipse_74" data-name="Ellipse 74" cx="24.04" cy="24.04" r="24.04" transform="translate(0 46.813) rotate(-76.817)" fill="none" stroke="#eb647d" stroke-miterlimit="10" stroke-width="1.056"/>
          <path id="Path_372" data-name="Path 372" d="M322.862,242.91a7.457,7.457,0,1,0-8.143,0,10.512,10.512,0,0,0-8.094,10.217v6.194a20.588,20.588,0,0,0,24.331,0v-6.194A10.513,10.513,0,0,0,322.862,242.91Z" transform="translate(-289.901 -213.71)" fill="#fff"/>
        </g>
        <g id="Group_384" data-name="Group 384" transform="translate(59.236 9.814)">
          <path id="Path_373" data-name="Path 373" d="M348.733,224.013l1,2.033,2.244.326-1.624,1.582.383,2.235-2.007-1.055-2.007,1.055.383-2.235-1.624-1.582,2.244-.326Z" transform="translate(-345.486 -224.013)" fill="#0054a1"/>
          <path id="Path_374" data-name="Path 374" d="M357.685,224.013l1,2.033,2.244.326-1.624,1.582.383,2.235-2.007-1.055-2.007,1.055.383-2.235-1.624-1.582,2.244-.326Z" transform="translate(-344.644 -224.013)" fill="#0054a1"/>
          <path id="Path_375" data-name="Path 375" d="M366.638,224.013l1,2.033,2.244.326-1.624,1.582.383,2.235-2.007-1.055-2.007,1.055.383-2.235-1.624-1.582,2.244-.326Z" transform="translate(-343.803 -224.013)" fill="#0054a1"/>
          <path id="Path_376" data-name="Path 376" d="M375.59,224.013l1,2.033,2.244.326-1.624,1.582.383,2.235-2.007-1.055-2.007,1.055.383-2.235-1.623-1.582,2.244-.326Z" transform="translate(-342.962 -224.013)" fill="#0054a1"/>
          <path id="Path_377" data-name="Path 377" d="M384.542,224.013l1,2.033,2.244.326-1.623,1.582.383,2.235-2.007-1.055-2.007,1.055.383-2.235-1.624-1.582,2.244-.326Z" transform="translate(-342.12 -224.013)" fill="#0054a1"/>
          <g id="Group_383" data-name="Group 383" transform="translate(1.081 11.55)" opacity="0.15">
            <line id="Line_5" data-name="Line 5" x2="20.837" stroke-width="2.113" stroke="#0054a1" stroke-linecap="round" stroke-linejoin="round" fill="none"/>
            <line id="Line_6" data-name="Line 6" x2="15.844" transform="translate(67.598 8.34)" fill="none" stroke="#0054a1" stroke-linecap="round" stroke-linejoin="round" stroke-width="2.113"/>
            <line id="Line_7" data-name="Line 7" x2="60.732" transform="translate(0 8.34)" fill="none" stroke="#0054a1" stroke-linecap="round" stroke-linejoin="round" stroke-width="2.113"/>
            <line id="Line_8" data-name="Line 8" x2="83.442" transform="translate(0 16.68)" fill="none" stroke="#0054a1" stroke-linecap="round" stroke-linejoin="round" stroke-width="2.113"/>
            <line id="Line_9" data-name="Line 9" x2="26.522" transform="translate(56.92 25.02)" fill="none" stroke="#0054a1" stroke-linecap="round" stroke-linejoin="round" stroke-width="2.113"/>
            <line id="Line_10" data-name="Line 10" x2="50.318" transform="translate(0 25.02)" fill="none" stroke="#0054a1" stroke-linecap="round" stroke-linejoin="round" stroke-width="2.113"/>
            <line id="Line_11" data-name="Line 11" x2="55.767" transform="translate(27.675)" fill="none" stroke="#0054a1" stroke-linecap="round" stroke-linejoin="round" stroke-width="2.113"/>
          </g>
        </g>
        <g id="Group_385" data-name="Group 385" transform="translate(1.8 60.285)">
          <circle id="Ellipse_75" data-name="Ellipse 75" cx="20.7" cy="20.7" r="20.7" transform="translate(0 15.989) rotate(-22.718)" fill="#0054a1" opacity="0.25"/>
          <path id="Path_378" data-name="Path 378" d="M322.862,296.37a7.457,7.457,0,1,0-8.143,0,10.512,10.512,0,0,0-8.094,10.217v6.194a20.593,20.593,0,0,0,24.331,0v-6.194A10.513,10.513,0,0,0,322.862,296.37Z" transform="translate(-291.702 -268.971)" fill="#fff"/>
        </g>
        <g id="Group_387" data-name="Group 387" transform="translate(59.236 68.298)">
          <path id="Path_379" data-name="Path 379" d="M348.733,277.473l1,2.033,2.244.326-1.624,1.583.383,2.235-2.007-1.055-2.007,1.055.383-2.235-1.624-1.583,2.244-.326Z" transform="translate(-345.486 -277.473)" fill="#0054a1"/>
          <path id="Path_380" data-name="Path 380" d="M357.685,277.473l1,2.033,2.244.326-1.624,1.583.383,2.235-2.007-1.055-2.007,1.055.383-2.235-1.624-1.583,2.244-.326Z" transform="translate(-344.644 -277.473)" fill="#0054a1"/>
          <path id="Path_381" data-name="Path 381" d="M366.638,277.473l1,2.033,2.244.326-1.624,1.583.383,2.235-2.007-1.055-2.007,1.055.383-2.235-1.624-1.583,2.244-.326Z" transform="translate(-343.803 -277.473)" fill="#0054a1"/>
          <path id="Path_382" data-name="Path 382" d="M375.59,277.473l1,2.033,2.244.326-1.624,1.583.383,2.235-2.007-1.055-2.007,1.055.383-2.235-1.623-1.583,2.244-.326Z" transform="translate(-342.962 -277.473)" fill="#0054a1" opacity="0.25"/>
          <path id="Path_383" data-name="Path 383" d="M384.542,277.473l1,2.033,2.244.326-1.623,1.583.383,2.235-2.007-1.055-2.007,1.055.383-2.235-1.624-1.583,2.244-.326Z" transform="translate(-342.12 -277.473)" fill="#0054a1" opacity="0.25"/>
          <g id="Group_386" data-name="Group 386" transform="translate(1.081 11.55)" opacity="0.15">
            <line id="Line_12" data-name="Line 12" x2="37.061" stroke-width="2.113" stroke="#0054a1" stroke-linecap="round" stroke-linejoin="round" fill="none"/>
            <line id="Line_13" data-name="Line 13" x2="61.503" transform="translate(21.939 8.34)" fill="none" stroke="#0054a1" stroke-linecap="round" stroke-linejoin="round" stroke-width="2.113"/>
            <line id="Line_14" data-name="Line 14" x2="15.074" transform="translate(0 8.34)" fill="none" stroke="#0054a1" stroke-linecap="round" stroke-linejoin="round" stroke-width="2.113"/>
            <line id="Line_15" data-name="Line 15" x2="83.442" transform="translate(0 16.68)" fill="none" stroke="#0054a1" stroke-linecap="round" stroke-linejoin="round" stroke-width="2.113"/>
            <line id="Line_16" data-name="Line 16" x2="17.088" transform="translate(66.354 25.019)" fill="none" stroke="#0054a1" stroke-linecap="round" stroke-linejoin="round" stroke-width="2.113"/>
            <line id="Line_17" data-name="Line 17" x2="59.752" transform="translate(0 25.019)" fill="none" stroke="#0054a1" stroke-linecap="round" stroke-linejoin="round" stroke-width="2.113"/>
            <line id="Line_18" data-name="Line 18" x2="39.542" transform="translate(43.899)" fill="none" stroke="#0054a1" stroke-linecap="round" stroke-linejoin="round" stroke-width="2.113"/>
          </g>
        </g>
        <g id="Group_388" data-name="Group 388" transform="translate(1.864 118.832)">
          <circle id="Ellipse_76" data-name="Ellipse 76" cx="20.7" cy="20.7" r="20.7" transform="translate(0 38.279) rotate(-67.608)" fill="#0054a1" opacity="0.25"/>
          <path id="Path_384" data-name="Path 384" d="M322.862,349.83a7.457,7.457,0,1,0-8.143,0,10.512,10.512,0,0,0-8.094,10.217v6.194a20.588,20.588,0,0,0,24.331,0v-6.194A10.513,10.513,0,0,0,322.862,349.83Z" transform="translate(-291.765 -322.494)" fill="#fff"/>
        </g>
        <g id="Group_390" data-name="Group 390" transform="translate(59.236 126.782)">
          <path id="Path_385" data-name="Path 385" d="M348.733,330.933l1,2.033,2.244.326-1.624,1.582.383,2.235-2.007-1.055-2.007,1.055.383-2.235-1.624-1.582,2.244-.326Z" transform="translate(-345.486 -330.933)" fill="#0054a1"/>
          <path id="Path_386" data-name="Path 386" d="M357.685,330.933l1,2.033,2.244.326-1.624,1.582.383,2.235-2.007-1.055-2.007,1.055.383-2.235-1.624-1.582,2.244-.326Z" transform="translate(-344.644 -330.933)" fill="#0054a1"/>
          <path id="Path_387" data-name="Path 387" d="M366.638,330.933l1,2.033,2.244.326-1.624,1.582.383,2.235-2.007-1.055-2.007,1.055.383-2.235-1.624-1.582,2.244-.326Z" transform="translate(-343.803 -330.933)" fill="#0054a1"/>
          <path id="Path_388" data-name="Path 388" d="M375.59,330.933l1,2.033,2.244.326-1.624,1.582.383,2.235-2.007-1.055-2.007,1.055.383-2.235-1.623-1.582,2.244-.326Z" transform="translate(-342.962 -330.933)" fill="#0054a1"/>
          <path id="Path_389" data-name="Path 389" d="M384.542,330.933l1,2.033,2.244.326-1.623,1.582.383,2.235-2.007-1.055-2.007,1.055.383-2.235-1.624-1.582,2.244-.326Z" transform="translate(-342.12 -330.933)" fill="#0054a1" opacity="0.25"/>
          <g id="Group_389" data-name="Group 389" transform="translate(1.081 11.55)" opacity="0.15">
            <line id="Line_19" data-name="Line 19" x2="20.837" stroke-width="2.113" stroke="#0054a1" stroke-linecap="round" stroke-linejoin="round" fill="none"/>
            <line id="Line_20" data-name="Line 20" x2="45.215" transform="translate(38.227 8.34)" fill="none" stroke="#0054a1" stroke-linecap="round" stroke-linejoin="round" stroke-width="2.113"/>
            <line id="Line_21" data-name="Line 21" x2="31.361" transform="translate(0 8.34)" fill="none" stroke="#0054a1" stroke-linecap="round" stroke-linejoin="round" stroke-width="2.113"/>
            <line id="Line_22" data-name="Line 22" x2="83.442" transform="translate(0 16.68)" fill="none" stroke="#0054a1" stroke-linecap="round" stroke-linejoin="round" stroke-width="2.113"/>
            <line id="Line_23" data-name="Line 23" x2="64.46" transform="translate(18.982 25.019)" fill="none" stroke="#0054a1" stroke-linecap="round" stroke-linejoin="round" stroke-width="2.113"/>
            <line id="Line_24" data-name="Line 24" x2="12.38" transform="translate(0 25.019)" fill="none" stroke="#0054a1" stroke-linecap="round" stroke-linejoin="round" stroke-width="2.113"/>
            <line id="Line_25" data-name="Line 25" x2="55.767" transform="translate(27.675)" fill="none" stroke="#0054a1" stroke-linecap="round" stroke-linejoin="round" stroke-width="2.113"/>
          </g>
        </g>
        <g id="Group_391" data-name="Group 391" transform="translate(8.189 183.641)">
          <circle id="Ellipse_77" data-name="Ellipse 77" cx="20.7" cy="20.7" r="20.7" fill="#0054a1" opacity="0.25"/>
          <path id="Path_390" data-name="Path 390" d="M322.862,403.29a7.458,7.458,0,1,0-8.143,0,10.514,10.514,0,0,0-8.094,10.218V419.7a20.593,20.593,0,0,0,24.331,0v-6.194A10.513,10.513,0,0,0,322.862,403.29Z" transform="translate(-298.09 -382.279)" fill="#fff"/>
        </g>
        <g id="Group_393" data-name="Group 393" transform="translate(59.236 185.266)">
          <path id="Path_391" data-name="Path 391" d="M348.733,384.393l1,2.033,2.244.326-1.624,1.583.383,2.235-2.007-1.055-2.007,1.055.383-2.235-1.624-1.583,2.244-.326Z" transform="translate(-345.486 -384.393)" fill="#0054a1"/>
          <path id="Path_392" data-name="Path 392" d="M357.685,384.393l1,2.033,2.244.326-1.624,1.583.383,2.235-2.007-1.055-2.007,1.055.383-2.235-1.624-1.583,2.244-.326Z" transform="translate(-344.644 -384.393)" fill="#0054a1"/>
          <path id="Path_393" data-name="Path 393" d="M366.638,384.393l1,2.033,2.244.326-1.624,1.583.383,2.235-2.007-1.055-2.007,1.055.383-2.235-1.624-1.583,2.244-.326Z" transform="translate(-343.803 -384.393)" fill="#0054a1"/>
          <path id="Path_394" data-name="Path 394" d="M375.59,384.393l1,2.033,2.244.326-1.624,1.583.383,2.235-2.007-1.055-2.007,1.055.383-2.235-1.623-1.583,2.244-.326Z" transform="translate(-342.962 -384.393)" fill="#0054a1"/>
          <path id="Path_395" data-name="Path 395" d="M384.542,384.393l1,2.033,2.244.326-1.623,1.583.383,2.235-2.007-1.055-2.007,1.055.383-2.235-1.624-1.583,2.244-.326Z" transform="translate(-342.12 -384.393)" fill="#0054a1"/>
          <g id="Group_392" data-name="Group 392" transform="translate(1.081 11.55)" opacity="0.15">
            <line id="Line_26" data-name="Line 26" x1="20.837" transform="translate(62.605 25.019)" fill="none" stroke="#0054a1" stroke-linecap="round" stroke-linejoin="round" stroke-width="2.113"/>
            <line id="Line_27" data-name="Line 27" x1="15.844" transform="translate(0 16.68)" fill="none" stroke="#0054a1" stroke-linecap="round" stroke-linejoin="round" stroke-width="2.113"/>
            <line id="Line_28" data-name="Line 28" x1="60.732" transform="translate(22.71 16.68)" fill="none" stroke="#0054a1" stroke-linecap="round" stroke-linejoin="round" stroke-width="2.113"/>
            <line id="Line_29" data-name="Line 29" x1="83.442" transform="translate(0 8.34)" fill="none" stroke="#0054a1" stroke-linecap="round" stroke-linejoin="round" stroke-width="2.113"/>
            <line id="Line_30" data-name="Line 30" x1="26.522" stroke-width="2.113" stroke="#0054a1" stroke-linecap="round" stroke-linejoin="round" fill="none"/>
            <line id="Line_31" data-name="Line 31" x1="50.318" transform="translate(33.124)" fill="none" stroke="#0054a1" stroke-linecap="round" stroke-linejoin="round" stroke-width="2.113"/>
            <line id="Line_32" data-name="Line 32" x1="55.767" transform="translate(0 25.019)" fill="none" stroke="#0054a1" stroke-linecap="round" stroke-linejoin="round" stroke-width="2.113"/>
          </g>
        </g>
      </g>
      <path id="Path_396" data-name="Path 396" d="M377.188,349.358a32.924,32.924,0,0,0,18.924,5.985,33.576,33.576,0,0,0,5.864-.517,33.034,33.034,0,0,0,13.065-5.4l12.349,14.916a5.019,5.019,0,0,0,.138,1.5,4.2,4.2,0,0,0,2.594,3.2c.36.106.784.17.982.488a1.722,1.722,0,0,1,.162.616,2.2,2.2,0,0,0,2.348,1.719v-.005l9.169,11.075a1.733,1.733,0,0,0,.7,1.447c.265.182.625.337.656.656a1.232,1.232,0,0,1-.114.471,1.254,1.254,0,0,0,1.824,1.462A2.119,2.119,0,0,0,447.8,389l9.441,11.4a3.676,3.676,0,0,0,2.841,1.335c.118,0,.235-.019.352-.03V392.7l-6.728-8.127c.071-.091.137-.186.211-.275a6.455,6.455,0,0,1,1.195-1.069l.177.416s2.052-.726,5.145-1.828v-6.794c-3.853,2.374-6.976,4.314-6.976,4.314l.045.105-.266.078a28.25,28.25,0,0,1-3.659.067l-9.2-11.114c1.708-.476,3.97-1.134,6.38-1.912l.151-.049c.307-.1.615-.2.926-.3l.339-.115.759-.256.385-.133c.237-.082.474-.164.71-.248l.42-.15q.341-.123.679-.247l.419-.154q.346-.13.689-.261l.385-.148c.241-.094.478-.189.715-.284l.342-.137q.466-.19.918-.384l.093-.039q.5-.215.977-.433l.252-.118c.226-.105.451-.21.666-.316.109-.054.213-.107.321-.161.184-.092.367-.185.542-.278.113-.059.22-.118.328-.177.161-.087.318-.176.47-.264.106-.061.21-.124.313-.185q.217-.131.418-.261c.094-.061.188-.121.278-.183.133-.091.258-.182.381-.271.077-.058.156-.115.229-.171.128-.1.242-.2.354-.3.054-.047.113-.1.163-.142.02-.019.035-.038.055-.058V323.84c-.185.175-.368.329-.556.531-3.707,3.984-6.323,29.511-6.421,30.459-.072.711-10.607,6.807-15.862,9.8a2.957,2.957,0,0,0-.738-1.959,5.132,5.132,0,0,0-2.068-1.285.989.989,0,0,0-.331-.068l-13.865-16.747a33.621,33.621,0,0,0,2.777-3.412,33.167,33.167,0,1,0-46.182,8.195Zm-2.152-41.96a25.623,25.623,0,0,1,16.638-10.626,26.1,26.1,0,0,1,4.562-.4,25.8,25.8,0,1,1-21.2,11.03Z" transform="translate(-263.101 -160.402)" fill="#41a8dc" opacity="0.45"/>
    </g>
    <g id="Group_402" data-name="Group 402" transform="translate(154.175 281.136)">
      <path id="Path_397" data-name="Path 397" d="M217.4,453.5c0,1.254-13.074,2.269-29.2,2.269S159,454.756,159,453.5s13.075-2.269,29.2-2.269S217.4,452.249,217.4,453.5Z" transform="translate(-145.751 -254.125)" fill="#b2e3f9" opacity="0.35"/>
      <path id="Path_398" data-name="Path 398" d="M220.6,348.685s3.233,3.753,3.827,3.972c.365.136,2.839.6,3.655.752a3.222,3.222,0,0,1,.887.252,2.849,2.849,0,0,1,.736.6,23.362,23.362,0,0,1,1.684,2.039,3.643,3.643,0,0,1,.389.584,3.545,3.545,0,0,1,.251.814q.527,2.383.9,4.795a.434.434,0,0,1-.012.254c-.09.185-.372.139-.526.005s-.271-.326-.465-.388l-.005.409a.962.962,0,0,1-.9-.129,7.376,7.376,0,0,1-2.819-2.727,3.07,3.07,0,0,0-.447-.653c-.5-.492-1.274-.484-1.948-.656a11.09,11.09,0,0,1-1.829-.593c-1.049-.481-1.178-1.742-1.278-1.979a.971.971,0,0,0-.271-.326c-.688-.62-3.422-2.685-3.422-2.685" transform="translate(-140.111 -263.763)" fill="#fbae8b"/>
      <path id="Path_399" data-name="Path 399" d="M186.144,274.982c1.523.439,2.328,2.406,2.845,3.751a20.929,20.929,0,0,1,1.139,5.062,6.936,6.936,0,0,1-.248,3.561,7.5,7.5,0,0,1-.993,1.548,3.266,3.266,0,0,1-.717.755,1.107,1.107,0,0,1-.991.17c-.475-.183-.665-.741-.8-1.231a32.469,32.469,0,0,0-3.642-9.211" transform="translate(-143.52 -270.689)" fill="#0d1342"/>
      <path id="Path_400" data-name="Path 400" d="M187.4,284.336c.03-1.018,1.1-1.681,2.029-.628a6.511,6.511,0,0,1,1.016,3.752c.053,1.466-1.084,1.754-2.018,1.958" transform="translate(-143.082 -269.919)" fill="#ef8d6d"/>
      <g id="Group_396" data-name="Group 396" transform="translate(49.936 186.69)">
        <path id="Path_401" data-name="Path 401" d="M197.9,443.152a33.765,33.765,0,0,1-.193,4.232c-.221,1.108-3.794.752-4.136.12s.084-5.794.084-5.794" transform="translate(-192.45 -441.71)" fill="#fcbfa1"/>
        <path id="Path_402" data-name="Path 402" d="M192.626,448.168c-.1,1.172-.091,3.383-.091,3.383l3.664.884.466-.624a6.393,6.393,0,0,0,2.152,1.174,14.324,14.324,0,0,0,3.455.333c3.026-.2,5.113-1.145,5.217-1.588.434-1.85-3.587-1.618-4.405-1.686a5.3,5.3,0,0,1-4.392-3.084c-.333-.871-.137-1.068-.636-.952a1.218,1.218,0,0,0-.781.549,2.182,2.182,0,0,1-2.318.987,2.617,2.617,0,0,1-1.383-.791A1.508,1.508,0,0,0,192.626,448.168Z" transform="translate(-192.535 -441.309)" fill="#de3949"/>
      </g>
      <path id="Path_403" data-name="Path 403" d="M191.478,409.826c.348-5.488-4.085-12.832-4.085-12.832s11.969-6.576,12.149-8.622c0,0,1.639,11.293,2.227,15.277,1.021,6.922-2.432,46.4-2.432,46.4a14.213,14.213,0,0,1-5.832.081s-.621-15.249-3.116-25.578C189.208,419.653,191.065,411.184,191.478,409.826Z" transform="translate(-143.082 -260.033)" fill="#1e77be"/>
      <path id="Path_404" data-name="Path 404" d="M192.13,350.318c4.493,10.027,9.373,42.384,10.543,53.554.5,4.736-3.448,10.287-8.042,6-5.483-5.112-13.2-28.532-15.954-32.666s-13.069-7.925-6.026-28.9" transform="translate(-144.695 -263.798)" fill="#1e77be"/>
      <g id="Group_397" data-name="Group 397" transform="translate(21.54 188.327)">
        <path id="Path_405" data-name="Path 405" d="M172.23,443.207s-.4,4.4-.563,5.522-3.746.962-4.123.351-.238-5.789-.238-5.789" transform="translate(-166.512 -443.207)" fill="#fcbfa1"/>
        <path id="Path_406" data-name="Path 406" d="M166.6,449.621a23.964,23.964,0,0,0,.119,3.1l4.128.277.249-.675a6.494,6.494,0,0,0,2.343.849l3.483.234c2.551.172,4.02-.056,4.116-.5.395-1.858-2.657-1.977-3.45-2.03-2.278-.153-4.672-1.385-5.133-2.577-.333-.865-.147-1.066-.628-.941a1.183,1.183,0,0,0-.748.563,2.1,2.1,0,0,1-2.232,1.029,2.5,2.5,0,0,1-1.35-.767A1.51,1.51,0,0,0,166.6,449.621Z" transform="translate(-166.578 -442.82)" fill="#de3949"/>
      </g>
      <path id="Path_407" data-name="Path 407" d="M181.659,412.852c-.76,3.9-10.954,2.445-10.734-1.011.313-4.913-3.13-11.263-4.45-34.648-.151-2.672-2.828-3.064-3.881-10.329s3.271-15.335,3.271-15.335l15.683-2.245s6.028,13.6,4.781,27.161S182.56,408.257,181.659,412.852Z" transform="translate(-145.428 -263.707)" fill="#1e77be"/>
      <path id="Path_408" data-name="Path 408" d="M170.583,406.169s-3.565,7.064-3.984,12.169c-.613,7.471.144,32.059.144,32.059s3.857.838,5.917.231c0,0,9.053-43.626,9.385-48.317S170.583,406.169,170.583,406.169Z" transform="translate(-145.059 -258.855)" fill="#1e77be"/>
      <path id="Path_409" data-name="Path 409" d="M198.968,307.365c-1.773-2.034-7.4-5.385-14.922-5.148-5.181.164-19.293,1.02-20.87,4.485-.806,1.772-1.672,19.919-.491,26.176.887,4.7,3.157,16.359,3.157,19.172s-1.511,4.018-.805,4.835c1.579,1.829,12.376,2.6,17.446,2.6,4.513,0,12.192-1.2,12.582-2.649.579-2.145-.881-2.065-1.079-4.315s-1.26-17.084.061-19.24c2.1-3.422,4.179-12.435,4.341-15.015S200.74,309.4,198.968,307.365Z" transform="translate(-145.459 -268.131)" fill="#3fbcf0"/>
      <path id="Path_410" data-name="Path 410" d="M166.633,320.351c-.537,1.119-4.189,6.992-4.189,6.992l-.149.7a29.059,29.059,0,0,0,.372,3.139c.887,4.7,3.157,16.359,3.157,19.172s-1.511,4.018-.805,4.835c.63.731,2.743,1.29,5.365,1.7a6.818,6.818,0,0,1-1.213-1.745c-.21-.826,1.172-.615,1.424-1.31s-3.135-14.292-3.962-20.824S167.171,319.232,166.633,320.351Z" transform="translate(-145.441 -266.436)" fill="#41a8dc" opacity="0.45"/>
      <path id="Path_411" data-name="Path 411" d="M187.135,296.717s.05,6.259.3,6.511a9.913,9.913,0,0,0,1.488.837s-.882,5.438-2.244,5.034-10.363-4.949-10.363-4.949,1.277-.519,1.277-1.024-1.211-10.347-1.211-10.347" transform="translate(-144.123 -269.017)" fill="#fbae8b"/>
      <path id="Path_412" data-name="Path 412" d="M181.373,275.6c1.312.358,4.77-.358,5.723,1.072s1.789,4.888,2.146,5.842c.712,1.9,1.176,3.928,1.693,5.886.674,2.551,1.785,7.224-.71,9.357a3.326,3.326,0,0,1-1.925.977c-1.182.214-2.358.456-3.539.668-1.83.328-3.858.712-5.678.121-2.43-.79-3.762-4.13-4.386-6.4L171.12,280.13Z" transform="translate(-144.612 -270.631)" fill="#fbae8b"/>
      <path id="Path_413" data-name="Path 413" d="M186.479,309.064s.5,23.033,1.434,37.044l-3.387,4.671-2.329-5.85a178.185,178.185,0,0,1,2.2-35.705Z" transform="translate(-143.584 -267.486)" fill="#132363"/>
      <path id="Path_414" data-name="Path 414" d="M187.2,307.34l-.08.316a6.421,6.421,0,0,1-.7,1.707h0l-2.079.161s-1.413-.741-1.6-1.537,2.32-2.1,2.32-2.1l.3.12a4.5,4.5,0,0,1,1.808,1.3Z" transform="translate(-143.521 -267.785)" fill="#132363"/>
      <path id="Path_415" data-name="Path 415" d="M177.521,300.249a12.912,12.912,0,0,0-2.834,2.861,26.639,26.639,0,0,0,6.907,8.581,12.017,12.017,0,0,1,4.219-5.274S178.264,304.855,177.521,300.249Z" transform="translate(-144.277 -268.315)" fill="#e4e4e5"/>
      <path id="Path_416" data-name="Path 416" d="M184.857,306.381a8.938,8.938,0,0,1,4.133,3.93,19.772,19.772,0,0,0-.561-7.292s-1.4-2.348-1.987-2.393A11.13,11.13,0,0,1,184.857,306.381Z" transform="translate(-143.321 -268.279)" fill="#e4e4e5"/>
      <path id="Path_417" data-name="Path 417" d="M194.789,305.717c4.584,2.548,12.425,28.741,13.3,29.028s18.636,21.208,18.636,21.208l-2.817,3.814s-17.932-13.038-23.081-18.749C197.2,337,190.344,319.05,190.344,319.05S190.205,303.169,194.789,305.717Z" transform="translate(-142.805 -267.827)" fill="#3fbcf0"/>
      <path id="Path_418" data-name="Path 418" d="M202.219,338.554c-1.773-1.57-7.4-18.213-7.4-18.213l-1.354,5.7c2.248,5.253,5.124,11.421,7.069,13.578,5.148,5.711,23.081,18.749,23.081,18.749l1.1-1.483S203.994,340.123,202.219,338.554Z" transform="translate(-142.512 -266.426)" fill="#41a8dc" opacity="0.45"/>
      <g id="Group_399" data-name="Group 399" transform="translate(0.388 81.482)">
        <path id="Path_419" data-name="Path 419" d="M175.521,345.563,148.3,350.7a1.293,1.293,0,0,0-1.008,1.613l3.647,18.83a1.293,1.293,0,0,0,1.487.929l27.224-5.139a1.293,1.293,0,0,0,1.006-1.611l-3.647-18.831A1.293,1.293,0,0,0,175.521,345.563Z" transform="translate(-147.244 -345.54)" fill="#eb647d"/>
        <path id="Path_420" data-name="Path 420" d="M175.037,346.882l-26.065,4.92,3.611,18.7,26.065-4.92Z" transform="translate(-147.081 -345.414)" fill="#e0f4fd"/>
        <g id="Group_398" data-name="Group 398" transform="translate(5.18 3.269)">
          <line id="Line_33" data-name="Line 33" x1="2.847" y1="15.917" transform="translate(20.62)" fill="none" stroke="#8bc8ed" stroke-linecap="round" stroke-linejoin="round" stroke-width="0.528"/>
          <line id="Line_34" data-name="Line 34" x1="2.847" y1="15.917" transform="translate(18.162 0.477)" fill="none" stroke="#8bc8ed" stroke-linecap="round" stroke-linejoin="round" stroke-width="0.528"/>
          <line id="Line_35" data-name="Line 35" x1="2.847" y1="15.917" transform="translate(14.625 1.201)" fill="none" stroke="#8bc8ed" stroke-linecap="round" stroke-linejoin="round" stroke-width="0.528"/>
          <line id="Line_36" data-name="Line 36" x1="2.848" y1="15.916" transform="translate(11.087 1.926)" fill="none" stroke="#8bc8ed" stroke-linecap="round" stroke-linejoin="round" stroke-width="0.528"/>
          <line id="Line_37" data-name="Line 37" x1="3.192" y1="15.917" transform="translate(7.205 2.65)" fill="none" stroke="#8bc8ed" stroke-linecap="round" stroke-linejoin="round" stroke-width="0.528"/>
          <line id="Line_38" data-name="Line 38" x1="3.192" y1="15.917" transform="translate(3.668 3.374)" fill="none" stroke="#8bc8ed" stroke-linecap="round" stroke-linejoin="round" stroke-width="0.528"/>
          <line id="Line_39" data-name="Line 39" x1="3.323" y1="15.916" transform="translate(0 4.099)" fill="none" stroke="#8bc8ed" stroke-linecap="round" stroke-linejoin="round" stroke-width="0.528"/>
        </g>
      </g>
      <g id="Group_400" data-name="Group 400" transform="translate(0 36.341)">
        <path id="Path_421" data-name="Path 421" d="M160.157,358.073s1.078,2.2,1.654,3.311c.375.728,3.236,3.163,4.382,5.1a4.966,4.966,0,0,1,.9,3.072,2.061,2.061,0,0,1-2.219,1.873c-.3-.065-.65-.213-.894-.023a1.166,1.166,0,0,0-.255.392,1.209,1.209,0,0,1-2.232-.307,2.041,2.041,0,0,1-2.719-.03,1.625,1.625,0,0,0,.656-1.439,3.257,3.257,0,0,0-.831-1.34,4.155,4.155,0,0,1-.853-2.623c.018-.668.2-1.322.271-1.986a6.314,6.314,0,0,0-.876-3.945" transform="translate(-145.925 -299.221)" fill="#fbae8b"/>
        <path id="Path_422" data-name="Path 422" d="M169.322,319.143c-.823,2.933-13.354,22.222-13.354,22.222l6.708,24.449-3.825,2.394s-11.927-19.817-11.963-25.413,8.724-26.112,15.13-34.5c2.038-2.669,6.125-4.017,6.125-4.017" transform="translate(-146.889 -304.277)" fill="#3fbcf0"/>
      </g>
      <path id="Path_423" data-name="Path 423" d="M173.785,291.3c.825-.482,1.456-.991,1.993-.2.284.418.457,1,.943,1.141a.974.974,0,0,0,1.1-.782,2.822,2.822,0,0,0-.182-1.482q-.5-1.6-.993-3.2a4.809,4.809,0,0,1-.232-3.2,3.511,3.511,0,0,1,1.01-1.293,10.692,10.692,0,0,1,4.908-2.1,52.467,52.467,0,0,0,5.284-1.085,5.7,5.7,0,0,0,2.012-1.013,4.337,4.337,0,0,0,1.425-3.252,6.715,6.715,0,0,0-1.032-3.467,5.832,5.832,0,0,1-.527,1.2,4.5,4.5,0,0,0-.963-1.51c-.513,2.863-12.568,1.907-15.384,3.169-1.952.874-3.566,1.446-3.507,4.61a1.154,1.154,0,0,1-.382.5c-1.73,1.59-2.478,3.522-2.7,6.392-.266,3.511,1.779,7.312,3.783,10.208a6.546,6.546,0,0,0,1.489,1.78,3.949,3.949,0,0,0,2.8.632c.87-.166,2.582-.091,2.6-.976.012-.633-1.341-1.763-1.716-2.273" transform="translate(-145.042 -271.058)" fill="#132363"/>
      <path id="Path_424" data-name="Path 424" d="M176.4,292.97a1.1,1.1,0,0,1-1.652,1.254,3.812,3.812,0,0,1-2.406-2.95c-.283-1.52.532-3.038,1.922-2.643a2.052,2.052,0,0,1,1.312,2" transform="translate(-144.502 -269.413)" fill="#fbae8b"/>
      <path id="Path_425" data-name="Path 425" d="M186.532,296.868l-3.866.712a5.391,5.391,0,0,0,3.918,1.445" transform="translate(-143.527 -268.632)" fill="#ef8d6d"/>
      <path id="Path_426" data-name="Path 426" d="M195.09,410.7c.7-2.294-1.269-5.854-2.238-8.507s-8.257-23.874-8.257-23.874l-1.608,8.56c1.513,3.669,3.165,7.6,4.821,11.061h0v0c.639,1.336,1.277,2.6,1.908,3.753,1.152,2.6,2.364,6.107,2.176,9.077-.412,1.358-2.27,9.827-1.089,14.725,2.493,10.329,3.116,25.578,3.116,25.578a14.792,14.792,0,0,0,1.788.211c-.21-3.764-.577-10.411-.617-11.727-.058-1.855-2.407-12.545-2.238-16.774A56.821,56.821,0,0,1,195.09,410.7Z" transform="translate(-143.497 -260.978)" fill="#0067b2"/>
      <g id="Group_401" data-name="Group 401" transform="translate(29.054 86.921)">
        <path id="Path_427" data-name="Path 427" d="M177.5,359.263l-2.356.558-1.7-8.81,2.363-.5Z" transform="translate(-173.447 -350.512)" fill="#eb647d"/>
        <path id="Path_428" data-name="Path 428" d="M180.6,353.894a2.144,2.144,0,0,0-2.505-1.708l-2.7.51.8,4.213,2.7-.51A2.144,2.144,0,0,0,180.6,353.894Zm-3.316.627a1.2,1.2,0,1,1,1.406.958A1.2,1.2,0,0,1,177.285,354.521Z" transform="translate(-173.264 -350.359)" fill="#eb647d"/>
      </g>
    </g>
    <g id="Group_409" data-name="Group 409" transform="translate(244.496 296.175)">
      <g id="Group_404" data-name="Group 404" transform="translate(34.421 31.636)">
        <path id="Path_429" data-name="Path 429" d="M290.153,318.825l-18.621-2.5v37.321l10.1,1.358a1.688,1.688,0,0,0,1.888-1.214l8.041-33.046A1.594,1.594,0,0,0,290.153,318.825Z" transform="translate(-259.917 -313.48)" fill="#41a8dc" opacity="0.45"/>
        <path id="Path_430" data-name="Path 430" d="M267.656,314.82l-6.705,29.452a1.408,1.408,0,0,0,1.174,1.708l20.87,3a1.41,1.41,0,0,0,1.574-1.082l6.7-29.452a1.408,1.408,0,0,0-1.174-1.708l-20.87-3A1.409,1.409,0,0,0,267.656,314.82Z" transform="translate(-260.915 -313.724)" fill="#3fbcf0"/>
        <path id="Path_431" data-name="Path 431" d="M268.821,315.595l-6.42,28.2,20.722,2.976,6.42-28.2Z" transform="translate(-260.775 -313.548)" fill="#e0f4fd"/>
        <g id="Group_403" data-name="Group 403" transform="translate(6.08 4.571)">
          <line id="Line_40" data-name="Line 40" x1="17.61" y1="2.529" transform="translate(2.884)" fill="none" stroke="#8bc8ed" stroke-linecap="round" stroke-linejoin="round" stroke-width="0.528"/>
          <line id="Line_41" data-name="Line 41" x1="17.61" y1="2.529" transform="translate(2.291 2.665)" fill="none" stroke="#8bc8ed" stroke-linecap="round" stroke-linejoin="round" stroke-width="0.528"/>
          <line id="Line_42" data-name="Line 42" x1="11.005" y1="1.58" transform="translate(1.564 5.823)" fill="none" stroke="#8bc8ed" stroke-linecap="round" stroke-linejoin="round" stroke-width="0.528"/>
          <line id="Line_43" data-name="Line 43" x1="11.005" y1="1.58" transform="translate(0.782 8.114)" fill="none" stroke="#8bc8ed" stroke-linecap="round" stroke-linejoin="round" stroke-width="0.528"/>
          <line id="Line_44" data-name="Line 44" x1="11.005" y1="1.58" transform="translate(0 10.405)" fill="none" stroke="#8bc8ed" stroke-linecap="round" stroke-linejoin="round" stroke-width="0.528"/>
          <line id="Line_45" data-name="Line 45" x1="11.005" y1="1.58" transform="translate(4.036 23.066)" fill="none" stroke="#8bc8ed" stroke-linecap="round" stroke-linejoin="round" stroke-width="0.528"/>
        </g>
      </g>
      <path id="Path_432" data-name="Path 432" d="M260.089,343.11a9.144,9.144,0,0,0,2.9-2.587l2.488-2.961a2.469,2.469,0,0,0,.707-1.323c-1.39-.114-2.286,1.692-3.677,1.8a29.09,29.09,0,0,1,2.762-6.562,2.017,2.017,0,0,0,.4-1.633,10.59,10.59,0,0,0-3.862,2.82,20.574,20.574,0,0,0-2.094,2.663,28.655,28.655,0,0,0-3.745,9.2" transform="translate(-226.959 -280.573)" fill="#ef8d6d"/>
      <g id="Group_405" data-name="Group 405" transform="translate(7.265 73.688)">
        <path id="Path_433" data-name="Path 433" d="M255.969,364.735l-14.9-12.572s-6.936,9.406-4.322,18.479c1.284,4.462,2.9,6.675,3.6,8.792.654,1.978,5.14,29.978,4.8,32.025s-2.743,7.775-3.662,13.8c-1.106,7.244-.918,30.848-1.776,37.107s4.922,7.317,5.24,5.2c2.716-18.1,9.891-46.3,10.895-55.344S256.441,386.6,255.969,364.735Z" transform="translate(-236.086 -352.163)" fill="#fbae8b"/>
        <path id="Path_434" data-name="Path 434" d="M254.863,379.956l-6.481,14.872a33.312,33.312,0,0,1,4.521,15.587c.108,2.87-.144,5.743-.065,8.614a2.839,2.839,0,0,0,.088.624c.869-4.253,1.515-7.76,1.769-10.043.709-6.392.713-16.552.488-29.669A2.88,2.88,0,0,0,254.863,379.956Z" transform="translate(-234.937 -349.552)" fill="#ef8d6d"/>
        <path id="Path_435" data-name="Path 435" d="M245.9,452.456s-1.387,6.567-1.013,7.4,1.715,3.269,3.09,4.148c1.442.922,4.637,2.019,4.893,2.419a.994.994,0,0,1-.184,1.341,6.625,6.625,0,0,1-4.555,1.155c-4.332-.715-4.781-2.631-7.3-2.937-.435-.054-1.243.591-2.447-.026a2.866,2.866,0,0,1-1.688-2.78,12.413,12.413,0,0,1,1.918-4.636c.723-1.338,1.233-7.46,1.233-7.46" transform="translate(-236.036 -342.867)" fill="#fbae8b"/>
        <path id="Path_436" data-name="Path 436" d="M253.083,467.352c.316-.54.4-1.358.1-1.558a25.342,25.342,0,0,0-2.7-1.622c-.84-.387-2.173-.728-1.7-.474s-.395,1.2-1.182,1.153c-2.715-.166-4.717-1.971-6.264-2.358-2.233-.558-3.167-3.193-3.266-3.621a10.381,10.381,0,0,0-1.6,3.057,5.343,5.343,0,0,0-.331,2.335,5.435,5.435,0,0,1,.248,2.225,4.259,4.259,0,0,0,1.6.579,6.306,6.306,0,0,0,1.728.025l.191-1.4a6.343,6.343,0,0,1,1.382.136,7.484,7.484,0,0,1,2.109.985c.31.37.558,1.045.968,1.251a8.657,8.657,0,0,0,3.562.888C250.844,469.121,252.543,468.276,253.083,467.352Z" transform="translate(-236.092 -342.135)" fill="#132363"/>
      </g>
      <g id="Group_406" data-name="Group 406" transform="translate(12.362 72.233)">
        <path id="Path_437" data-name="Path 437" d="M275.885,477.234c-.321-.354-3.772-.916-5.391-1.592a9.317,9.317,0,0,1-3.775-3.6c-.363-.878-.28-5.334-.233-7.2.323-12.886,2.7-44.376,3.048-51.917.6-13.107-1.1-26.636-6.145-47.678l-18.779-14.412s-5.259,9.777-3.5,19.125c1.021,5.423,5.519,6.258,6.281,8.366s12.121,36.091,12.121,36.091a63.968,63.968,0,0,0-2.338,15.4c-.111,6.87,3.006,27.6,3.584,35.494.068,1.542.334,5.237-.12,6.412-.558,1.441-1.978,3.133-1.907,4.951a2.8,2.8,0,0,0,2.134,2.472c1.33.412,2.072-.357,2.529-.375,2.647-.111,3.38,1.711,7.951,1.709a7.228,7.228,0,0,0,4.538-1.886A.967.967,0,0,0,275.885,477.234Z" transform="translate(-240.751 -350.833)" fill="#fbae8b"/>
        <path id="Path_438" data-name="Path 438" d="M274.777,468.358c.249-.586.217-1.407-.115-1.556a25.963,25.963,0,0,0-3.012-1.164c-.921-.245-2.344-.364-1.825-.19s-.237,1.253-1.056,1.334c-2.825.279-5.146-1.177-6.8-1.307-2.382-.186-3.257-2.639-3.418-3.046a10.927,10.927,0,0,0-1.686,3.285,5.16,5.16,0,0,0-.011,2.362,5.157,5.157,0,0,1,.57,2.16,4.491,4.491,0,0,0,1.737.31,6.879,6.879,0,0,0,1.786-.258V468.87a6.861,6.861,0,0,1,1.444-.092,4.794,4.794,0,0,1,2.329.824c.387.292.8.784,1.255.9a9.586,9.586,0,0,0,3.709.28C272.717,470.473,274.352,469.359,274.777,468.358Z" transform="translate(-239.25 -340.345)" fill="#132363"/>
      </g>
      <path id="Path_439" data-name="Path 439" d="M241.508,350.839c-1.274,1.4-5.817,8.967-5.865,15.128s2.143,10.111,2.34,11.4c1.441,9.41,2.833,20.759,2.833,21.375s5.342,4.179,12.525,3.726c13.273-.835,18.434-4.311,18.434-4.311s-.628-22.794-2.675-34.034c-1.025-5.633-5.49-14.7-5.49-14.7" transform="translate(-228.869 -278.733)" fill="#132363"/>
      <path id="Path_440" data-name="Path 440" d="M229.935,328.309s2.138,10.621,2.7,12.512,3.334,13.892,5.963,13.684,17.026-12.229,17.026-12.229l-2.039-4.078-12.673,6.042s-1.145-13.72-2.149-16.987" transform="translate(-229.406 -280.816)" fill="#fbae8b"/>
      <path id="Path_441" data-name="Path 441" d="M234.413,334.2c1.341,4.741,4.091,9.74,4.913,13.417.165.738,8.941-2.453,8.961-5.748" transform="translate(-228.985 -280.164)" fill="#ef8d6d"/>
      <path id="Path_442" data-name="Path 442" d="M238.565,314.761s-4.2.448-6.333,2.078C226.8,321,231,336.086,231,336.086s-.268.806,3.379.6a26.24,26.24,0,0,0,6.573-1.243L239.9,323.08" transform="translate(-229.451 -281.99)" fill="#ea3518"/>
      <path id="Path_443" data-name="Path 443" d="M233.39,322.57s-.461,8.872,1.145,13.349a14.522,14.522,0,0,0,2.976-.391Z" transform="translate(-229.087 -281.256)" fill="#9f2a35"/>
      <path id="Path_444" data-name="Path 444" d="M257.761,289.384c2.531,3.283,2.03,7.9,1.406,12q-.473,3.108-.946,6.217a3.121,3.121,0,0,1-4,3.282q.015,2.573.031,5.145-4.4.107-8.8.036a8.5,8.5,0,0,0-.761-3.494c-1.436-.027-2.395-1.467-2.957-2.789a40.242,40.242,0,0,1-1.576-4.708,25.993,25.993,0,0,1-1.244-6.456,9.34,9.34,0,0,1,1.862-6.178,11.216,11.216,0,0,1,3.577-2.673c1.82-.951,4.006-1.7,5.883-.869" transform="translate(-228.563 -284.455)" fill="#fbae8b"/>
      <path id="Path_445" data-name="Path 445" d="M255.138,305.375a5.353,5.353,0,0,1,.243-3.845,2.537,2.537,0,0,1,.77-.977,1.63,1.63,0,0,1,1.569-.162,1.739,1.739,0,0,1,.789.734,22.484,22.484,0,0,0,.55-7.19,9.348,9.348,0,0,0-5.93-8.141c-6.216-2.553-15.147-.031-17.671,6.07a15.1,15.1,0,0,0,2.71,15.123c3.232,3.421,7.88,3.923,12.169,3.218,2.195-.361,5.583-.144,6.718-3.13a.333.333,0,0,0-.342-.442C255.822,306.7,255.2,305.693,255.138,305.375Z" transform="translate(-228.977 -284.805)" fill="#132363"/>
      <path id="Path_446" data-name="Path 446" d="M254.34,297.155c.231.362.177.849.394,1.22a2.859,2.859,0,0,0,1.5,1.15c1.056.489.808,2.025.778,2.712.8-.528.926-1.969,1.118-2.7.215-.822.353-1.665.593-2.48a12.492,12.492,0,0,0,.71-2.374,9.749,9.749,0,0,0-3.736-7.888,5.192,5.192,0,0,0-5.816.069,4.535,4.535,0,0,0-1.661,2.112,1.4,1.4,0,0,0-.066,1.133" transform="translate(-227.702 -284.699)" fill="#132363"/>
      <path id="Path_447" data-name="Path 447" d="M240.889,315.068c.149-1,.421-2.176,1.357-2.572a2.923,2.923,0,0,1,.825-.176,68.637,68.637,0,0,1,8.625-.407,8.045,8.045,0,0,1,3.491.613c1.672.836,2.591,2.638,3.4,4.322" transform="translate(-228.376 -282.259)" fill="#9f2a35"/>
      <path id="Path_448" data-name="Path 448" d="M265.847,351.751a24.067,24.067,0,0,1-1.656-1.952c-.8-1.564-1.491-8.148-1.218-9.829.293-1.8,1.889-2.773,2.609-6.786a14.838,14.838,0,0,0-2.377-10.907c-1.675-2.434-.682-2.42-1.255-5.4a2.835,2.835,0,0,0-.592-1.485,14.326,14.326,0,0,0-3.349-1.586c-4.656-.721-7.392-.158-12.1.048a40.348,40.348,0,0,0-6.938.877c-2.53.558-4.734,1.23-5.254,4.663a34.591,34.591,0,0,0,1.486,15.714c1.071,3.338,7.459,14.886,5.876,17.121a7.635,7.635,0,0,0-1.376,2.118c-.4,2.335,4.873,3.155,7.129,3.34a88.366,88.366,0,0,0,10.831-.068c2.611-.121,8.323-1.034,8.729-4.26A2.331,2.331,0,0,0,265.847,351.751Z" transform="translate(-229.082 -282.113)" fill="#ef5d3c"/>
      <path id="Path_449" data-name="Path 449" d="M262.8,332.932a9.284,9.284,0,0,1-.694,2.692,7.216,7.216,0,0,1-4.743.214,68.889,68.889,0,0,0-2.144-9.075S262.8,332.063,262.8,332.932Z" transform="translate(-227.03 -280.862)" fill="#9f2a35"/>
      <path id="Path_450" data-name="Path 450" d="M242.828,306.081a4.978,4.978,0,0,0-4.915,1.93c-1.377,1.651-1.975,4.215-.687,5.937a5.755,5.755,0,0,0,1.87,1.49,9.893,9.893,0,0,0,7.034,1.305c2.372-.582,4.454-2.7,4.425-5.146-.025-2.21-1.639-4.055-3.27-5.546" transform="translate(-228.788 -282.818)" fill="#132363"/>
      <g id="Group_408" data-name="Group 408" transform="translate(32.436 34.589)">
        <path id="Path_451" data-name="Path 451" d="M259.1,331.055s8.6,20.781,12.331,20.781c2.713,0,9.369-19.184,9.369-19.184l-4.205-1.99-4.689,8.034-4.748-14.985" transform="translate(-259.101 -315.738)" fill="#fbae8b"/>
        <path id="Path_452" data-name="Path 452" d="M274.33,332.4s1.395-2.195,1.292-3.751c-.038-.594-.392-3.419-.1-3.974a16.583,16.583,0,0,1,1.4-2.727c.4-.353,1.9-.921,2.263-.668s.819-.909,1.425-.808a1.286,1.286,0,0,1,1.111,1.162c0,.556.807.656.909,1.06a5.678,5.678,0,0,0,.2,1.061c.152.3.6.153.758.908.146.692-.05.758,0,1.111s.353.321.253.993a8.477,8.477,0,0,1-.966,2.3,6.663,6.663,0,0,1-2.345,2.375,4.479,4.479,0,0,0-1.369,1.888" transform="translate(-257.67 -316.044)" fill="#fbae8b"/>
        <path id="Path_453" data-name="Path 453" d="M276.526,316.718a.514.514,0,0,0-.742-.2.662.662,0,0,0-.165.825c.074.167,2.542,5.753,2.542,5.753s.206.236.6-.109c.427-.376.291-.564.291-.564S276.632,316.884,276.526,316.718Z" transform="translate(-257.556 -316.423)" fill="#132363"/>
        <g id="Group_407" data-name="Group 407" transform="translate(19.316 5.547)">
          <path id="Path_454" data-name="Path 454" d="M279.091,321.576a5.9,5.9,0,0,1-1.55,1.617c-.395.372-.347.612-.783.994.766-.058.635-.509,1.626-1.224a2.1,2.1,0,0,0,1.024-1.254.174.174,0,0,0-.316-.133Z" transform="translate(-276.758 -321.494)" fill="#ef8d6d"/>
        </g>
      </g>
      <path id="Path_455" data-name="Path 455" d="M251.871,313.488c2.239.117,8.759-1.027,12.383,2.762,3.036,3.175,4.775,11.5,6,14.874-3.04,3.1-5.97,5.6-10.577,4.594-.174-.13-2.46-7.324-4.124-7.964" transform="translate(-227.344 -282.117)" fill="#ea3518"/>
      <path id="Path_456" data-name="Path 456" d="M255.187,400.234c-.846-5.468-6.083-22.421-6.3-22.887a20.446,20.446,0,0,1-5.683-6.336c-.643,3.716,1.05,7.391,2.639,10.812,2.774,5.975,4.419,12.472,6.807,18.612" transform="translate(-228.172 -276.704)" fill="#0d1342"/>
    </g>
    <g id="Group_414" data-name="Group 414" transform="translate(388.164 290.509)">
      <path id="Path_457" data-name="Path 457" d="M458.363,319.051c-3.707,3.983-6.323,29.511-6.419,30.459s-18.773,11.455-18.773,11.455l2.63,3.008s19.9-5.013,23.479-9.34c3.036-3.671,10.053-33.682,10.053-33.682S464.517,312.44,458.363,319.051Z" transform="translate(-353.974 -276.157)" fill="#3fbcf0"/>
      <g id="Group_410" data-name="Group 410" transform="translate(157.085 191.213)">
        <path id="Path_458" data-name="Path 458" d="M508.348,457.858a34.448,34.448,0,0,0,2.288,3.861c.766.928,4.093-1.172,4.116-1.931s-2.955-5.376-2.955-5.376" transform="translate(-503.994 -454.412)" fill="#fbae8b"/>
        <path id="Path_459" data-name="Path 459" d="M516.6,459.66c.72,1.02,1.9,3.042,1.9,3.042l-2.937,2.68-.768-.329a6.573,6.573,0,0,1-1.375,2.172,15.135,15.135,0,0,1-3.038,2.072c-2.927,1.363-5.378,1.571-5.712,1.22-1.4-1.467,2.472-3.314,3.2-3.794a5.426,5.426,0,0,0,2.435-5.063c-.158-.966-.446-1.046.081-1.195a1.341,1.341,0,0,1,1.022.1,2.387,2.387,0,0,0,2.689-.284,2.679,2.679,0,0,0,.863-1.431A1.66,1.66,0,0,1,516.6,459.66Z" transform="translate(-504.368 -453.996)" fill="#132363"/>
      </g>
      <g id="Group_411" data-name="Group 411" transform="translate(95.491 202.3)">
        <path id="Path_460" data-name="Path 460" d="M458.375,466.969a8.568,8.568,0,0,0-.643,3c.092,1.19,4.044,1.278,4.5.661s.689-6.078.689-6.078" transform="translate(-447.157 -464.547)" fill="#fbae8b"/>
        <path id="Path_461" data-name="Path 461" d="M464.188,471.3a24.275,24.275,0,0,1-.36,3.259h-4.555l-.224-.729a7.377,7.377,0,0,1-2.637.729h-3.844c-2.815,0-4.413-.344-4.484-.818-.3-1.983,3.065-1.893,3.94-1.893,2.514,0,5.236-1.128,5.829-2.351.43-.888.24-1.113.76-.946a1.293,1.293,0,0,1,.78.645,2.33,2.33,0,0,0,2.375,1.242,2.79,2.79,0,0,0,1.54-.711A1.591,1.591,0,0,1,464.188,471.3Z" transform="translate(-448.065 -464.175)" fill="#132363"/>
      </g>
      <path id="Path_462" data-name="Path 462" d="M481.855,393.593c-.027.166-3.718-4.065-3.759-3.886-1.467,7.4-8.3,32.155-10.565,38.649v.013a6.837,6.837,0,0,1-3.539,3.237c-3.334.87-8.657-.271-9.083-6.65-.054-.7.106-1.471.026-2.3-.951-9.825,8.447-53.144,8.686-55.906s5.661-.768,7.182-1.28C478.393,362.951,483.842,383.237,481.855,393.593Z" transform="translate(-351.935 -271.579)" fill="#ef5d3c"/>
      <path id="Path_463" data-name="Path 463" d="M468.006,427.508c-1.541-4.61.8-10.011.8-10.011s-13.1-10.074-13.77-3.925c-.067.486-.554,4.652-.552,7,.005,8.409,2.927,35.038,2.714,51.3v1.061a32.49,32.49,0,0,0,6.029.4c.173,0,.36,0,.547-.013,1.1-10.126,3.464-23.9,4.588-37.75A31.8,31.8,0,0,0,468.006,427.508Z" transform="translate(-351.972 -267.224)" fill="#ef5d3c"/>
      <path id="Path_464" data-name="Path 464" d="M500.651,430.023c-2.622-3.258-5.389-4.716-6.208-7.2-1.9-5.77-1.388-29.173-1.57-35.669.54-1.329,5.589-14.613-4.656-24.4,0,0-9.211,3.951-16.588,4.428a37.986,37.986,0,0,1-8.758-.2s5.486,8.275,5.807,11.944c.543,6.231,12.194,43.867,13.083,45.931a24.6,24.6,0,0,0,5,7.509c5.165,6.72,17.252,20.853,26.417,34.389l.619.875a25.286,25.286,0,0,0,5.269-2.984C514.126,455.634,508.96,440.348,500.651,430.023Z" transform="translate(-351.183 -271.813)" fill="#ef5d3c"/>
      <path id="Path_465" data-name="Path 465" d="M456.248,319.277c1.84-2.11,9.734-5.373,17.539-5.126,5.378.17,22.47,1.93,24.107,5.527.836,1.839.755,19.293-.469,25.786-.921,4.882-3.7,17.429-3.7,20.348s1.568,4.169.837,5.018c-1.639,1.9-13.888,2.748-19.148,2.748-4.683,0-12.653-1.248-13.057-2.748-.6-2.227.913-2.144,1.118-4.478s1.308-17.729-.062-19.966c-2.176-3.551-5.482-13.617-5.648-16.293S454.409,321.387,456.248,319.277Z" transform="translate(-351.859 -276.382)" fill="#3fbcf0"/>
      <path id="Path_466" data-name="Path 466" d="M468.194,308.442s-.051,6.495-.314,6.756a10.181,10.181,0,0,1-1.545.869s.915,5.645,2.329,5.226,10.754-5.136,10.754-5.136-1.325-.539-1.325-1.062,1.258-10.737,1.258-10.737" transform="translate(-350.858 -277.301)" fill="#fbae8b"/>
      <path id="Path_467" data-name="Path 467" d="M471.054,288.633a3.955,3.955,0,0,0-4.029-.269,5.884,5.884,0,0,0-2.75,3.116,4.635,4.635,0,0,0-.005,3.966,2.431,2.431,0,0,0-1.524,2.316,5.815,5.815,0,0,0,1.2,2.98,2.712,2.712,0,0,0,2.691,1.121,3.048,3.048,0,0,0,1.715-1.2,7.936,7.936,0,0,0,.966-1.9,52.4,52.4,0,0,0,2.612-9.545" transform="translate(-351.195 -278.844)" fill="#0d1342"/>
      <path id="Path_468" data-name="Path 468" d="M474.924,286.528c-1.361.371-4.948-.372-5.938,1.113s-1.855,5.073-2.227,6.063c-.738,1.97-1.22,4.076-1.757,6.108-.7,2.646-2.5,7.633.092,9.847a5.24,5.24,0,0,0,2.643.876c1.226.222,2.446.474,3.672.694,1.9.341,4,.738,5.892.126,2.521-.819,3.9-4.285,4.551-6.639l3.712-13.485Z" transform="translate(-351.102 -278.977)" fill="#fbae8b"/>
      <path id="Path_469" data-name="Path 469" d="M479.054,304.8a1.147,1.147,0,0,0,1.853,1.1,3.955,3.955,0,0,0,2.127-3.33c.112-1.6-.911-3.068-2.3-2.494a2.132,2.132,0,0,0-1.115,2.217" transform="translate(-349.663 -277.716)" fill="#fbae8b"/>
      <path id="Path_470" data-name="Path 470" d="M483.892,299.2c-.439,1.339-1.585,4.382-2.8,4.087s.494-5.061,1.548-6.973c-1.532-.005-3.421-.242-3.972-1.671-.124-.322-.222-.737-.558-.811-.276-.059-.522.163-.758.316-1.074.7-2.541.016-3.4-.935-.2-.219-.424-.473-.718-.452a1,1,0,0,0-.48.233c-1.766,1.254-6.458,1.191-6.441-1.013-1.545.785-2.546-1.128-2.454-2.436s1.073-3.5,3.2-3.441c-.106-1.608,1.157-2.617,2.436-3.6a8,8,0,0,1,4.521-1.492c2.543-.116,5.437.934,6.306,3.327a.814.814,0,0,0,.283.461.782.782,0,0,0,.594-.007,6.162,6.162,0,0,1,5.644,1.12,4.279,4.279,0,0,1,.842,5.42,3.2,3.2,0,0,1,2.057,3.637,7.89,7.89,0,0,1-2.258,3.923,3.013,3.013,0,0,1,1.441,4.211,4.737,4.737,0,0,1-4.6,2.045c.387-1.53-.278-3.293-1.758-3.567" transform="translate(-351.091 -279.496)" fill="#132363"/>
      <path id="Path_471" data-name="Path 471" d="M468.274,321.255s-.515,23.9-1.489,38.442l3.515,4.847,2.417-6.07a184.9,184.9,0,0,0-2.286-37.053Z" transform="translate(-350.815 -275.713)" fill="#132363"/>
      <path id="Path_472" data-name="Path 472" d="M467.4,319.465l.083.328a6.7,6.7,0,0,0,.728,1.771h0l2.156.166s1.467-.768,1.661-1.594-2.407-2.178-2.407-2.178l-.316.124a4.687,4.687,0,0,0-1.877,1.351Z" transform="translate(-350.757 -276.023)" fill="#0d1342"/>
      <path id="Path_473" data-name="Path 473" d="M478.04,312.107a13.426,13.426,0,0,1,2.941,2.969,27.636,27.636,0,0,1-7.169,8.9,12.46,12.46,0,0,0-4.377-5.472S477.267,316.888,478.04,312.107Z" transform="translate(-350.566 -276.573)" fill="#e4e4e5"/>
      <path id="Path_474" data-name="Path 474" d="M469.814,318.472a9.27,9.27,0,0,0-4.291,4.076,20.537,20.537,0,0,1,.583-7.567s1.451-2.435,2.062-2.482C467.916,315.378,469.814,318.472,469.814,318.472Z" transform="translate(-350.945 -276.536)" fill="#e4e4e5"/>
      <path id="Path_475" data-name="Path 475" d="M467.117,430.015a10.845,10.845,0,0,1-.52-3.325c.026-.056.063-.119.082-.168v-.013c1.525-4.367,5.112-16.992,7.745-27.045l-4.084-14.555s-2.477,29.627-3.288,31.755-3.339,8.968-3.093,10.442,1.843,4.178,1.6,6.511-.21,23.265-.209,23.376c.807-6.051,1.6-12.474,2.123-18.918A31.8,31.8,0,0,0,467.117,430.015Z" transform="translate(-351.082 -269.731)" fill="#ea3518"/>
      <g id="Group_412" data-name="Group 412">
        <circle id="Ellipse_78" data-name="Ellipse 78" cx="29.48" cy="29.48" r="29.48" transform="translate(0 31.62) rotate(-32.432)" fill="none" stroke="#132363" stroke-miterlimit="10" stroke-width="5.282"/>
        <line id="Line_46" data-name="Line 46" x2="43.903" y2="53.029" transform="translate(60.689 63.544)" fill="none" stroke="#132363" stroke-linecap="round" stroke-linejoin="round" stroke-width="5.282"/>
      </g>
      <g id="Group_413" data-name="Group 413" transform="translate(87.289 42.842)">
        <path id="Path_476" data-name="Path 476" d="M454.7,368.221s-2.422.757-3.674,1.119c-.817.236-4.692-.179-6.973.342A5.153,5.153,0,0,0,441.1,371.2a2.138,2.138,0,0,0,.173,3.007c.266.182.625.337.656.657a1.229,1.229,0,0,1-.113.471,1.255,1.255,0,0,0,1.824,1.462,2.117,2.117,0,0,0,1.964,2.026,1.686,1.686,0,0,1,.615-1.521,3.375,3.375,0,0,1,1.6-.33,4.313,4.313,0,0,0,2.585-1.23c.49-.491.853-1.093,1.3-1.622a6.548,6.548,0,0,1,3.6-2.156" transform="translate(-440.568 -314.141)" fill="#fbae8b"/>
        <path id="Path_477" data-name="Path 477" d="M497.3,319.239a2.034,2.034,0,0,0-.3-.445l-11.273,11.025c-2.686,7.152-8.041,25.97-8.041,25.97s-5.075,2.38-8.479,4.147c-.863.449-3.3,2.088-6.185,4.089-.06.859-.113,1.535-.144,1.888-.2,2.333-.525,2.318.074,4.546a44.549,44.549,0,0,1-.951,5.888c8.471-2.165,25.952-7.645,26.614-8,.993-.539,6.139-21.24,9.119-33.811C498.194,326.876,497.911,320.586,497.3,319.239Z" transform="translate(-438.554 -318.786)" fill="#41a8dc" opacity="0.45"/>
        <path id="Path_478" data-name="Path 478" d="M486.763,328.618c-1.044,2.983-6.577,29.263-6.577,29.263a50.236,50.236,0,0,0-8.819,3.127c-2.639,1.37-21.036,12.8-21.036,12.8l1.831,4.308s32.747-11.606,34.182-12.386,14.586-33.959,14.585-39.88c0-3.487-2.824-7.058-2.824-7.058" transform="translate(-439.651 -318.787)" fill="#3fbcf0"/>
      </g>
      <path id="Path_479" data-name="Path 479" d="M432.726,363.1a2.2,2.2,0,0,1-2.348-1.719,1.716,1.716,0,0,0-.161-.616c-.2-.318-.624-.383-.983-.488a4.2,4.2,0,0,1-2.594-3.2,4.3,4.3,0,0,1-.007-2.268,2.366,2.366,0,0,1,1.518-1.6.71.71,0,0,1,.444-.011.823.823,0,0,1,.336.3,5.688,5.688,0,0,1,.94,1.883,2.361,2.361,0,0,0,.656,1.357,6.006,6.006,0,0,0,.953.4,2.72,2.72,0,0,1,1.167,1.658c.35,1-.116,3.272.078,4.31" transform="translate(-354.603 -272.714)" fill="#fbae8b"/>
      <path id="Path_480" data-name="Path 480" d="M436.1,356.339a2.828,2.828,0,0,0-.708-2.375,5.125,5.125,0,0,0-2.068-1.285c-.2-.075-.478-.125-.6.057a.422.422,0,0,0,.042.435c.293.5.906.726,1.22,1.209a5.027,5.027,0,0,1,.282.583,2.547,2.547,0,0,0,1.83,1.376" transform="translate(-354.021 -272.767)" fill="#fbae8b"/>
      <path id="Path_481" data-name="Path 481" d="M462.863,341.043s-3.106-7.685-3.667-10.856c-1.483,7.539-.992,20.74-2.244,21.866s-13.755,8.252-13.755,8.252h0c5.905-1.854,13.12-4.514,15.14-6.956,1.141-1.381,2.844-6.48,4.526-12.307Z" transform="translate(-353.032 -274.874)" fill="#41a8dc" opacity="0.45"/>
      <path id="Path_482" data-name="Path 482" d="M468.029,308.59s5.284,1.152,6.22,1-2.033,1.61-2.587,1.676-3.633-.359-3.633-.359Z" transform="translate(-350.698 -276.904)" fill="#ef8d6d"/>
    </g>
    <g id="Group_416" data-name="Group 416" transform="translate(219.272 217.587)">
      <rect id="Rectangle_181" data-name="Rectangle 181" width="66.007" height="47.266" rx="4.52" transform="translate(66.007 47.266) rotate(180)" fill="#b7e5fb"/>
      <path id="Path_483" data-name="Path 483" d="M259.953,242.877l15.829-4.468-14.113-3.683" transform="translate(-201.361 -210.924)" fill="#b7e5fb"/>
      <g id="Group_415" data-name="Group 415" transform="translate(8.794 8.099)">
        <rect id="Rectangle_182" data-name="Rectangle 182" width="9.849" height="2.262" transform="translate(24.533 15.217) rotate(180)" fill="#0054a1" opacity="0.25"/>
        <rect id="Rectangle_183" data-name="Rectangle 183" width="16.806" height="2.262" transform="translate(24.533 11.839) rotate(180)" fill="#0054a1" opacity="0.25"/>
        <rect id="Rectangle_184" data-name="Rectangle 184" width="48.326" height="2.795" transform="translate(48.326 25.143) rotate(180)" fill="#0054a1" opacity="0.25"/>
        <rect id="Rectangle_185" data-name="Rectangle 185" width="48.326" height="2.795" transform="translate(48.326 29.319) rotate(180)" fill="#0054a1" opacity="0.25"/>
        <rect id="Rectangle_186" data-name="Rectangle 186" width="16.806" height="2.262" transform="translate(24.533 8.46) rotate(180)" fill="#0054a1" opacity="0.25"/>
        <rect id="Rectangle_187" data-name="Rectangle 187" width="6.17" height="2.262" transform="translate(24.533 5.082) rotate(180)" fill="#0054a1" opacity="0.25"/>
        <path id="Path_484" data-name="Path 484" d="M240.529,230.26a9.889,9.889,0,1,0,9.89-9.888A9.889,9.889,0,0,0,240.529,230.26Z" transform="translate(-211.981 -220.372)" fill="#0054a1" opacity="0.25"/>
        <path id="Path_485" data-name="Path 485" d="M248.123,230.109a3.562,3.562,0,1,1,3.89,0,5.022,5.022,0,0,1,3.866,4.881v2.959a9.838,9.838,0,0,1-11.624,0V234.99A5.023,5.023,0,0,1,248.123,230.109Z" transform="translate(-211.631 -220.072)" fill="#0054a1" opacity="0.19"/>
      </g>
    </g>
  </g>
</svg>
